<svg version="1.2" xmlns="http://www.w3.org/2000/svg" viewBox="0 0 714 702" width="714" height="702"><style>.a{fill:#1d444e}.b{fill:#1e464f}.c{fill:#fbac10}.d{fill:#eff0f1}.e{fill:#20464f}.f{fill:#2e3a41}.g{fill:#367f84}.h{fill:#b1b7bb}.i{fill:#fbad10}.j{fill:#fc5033}.k{fill:#2e353c}.l{fill:#83d469}.m{fill:#1c414b}.n{fill:#20ac5d}.o{fill:#368085}.p{fill:#2f363d}.q{fill:#fdc222}.r{fill:#2a3339}.s{fill:#369ea7}.t{fill:#fed95c}.u{fill:#1c6e4c}.v{fill:#fc5134}.w{fill:#171d1f}.x{fill:#f0f1f2}.y{fill:#fdd459}.z{fill:#2e3d45}.A{fill:#1b6949}.B{fill:#099151}.C{fill:#f9930c}.D{fill:#fa3d16}.E{fill:#82d469}.F{fill:#fa930c}.G{fill:#367e84}.H{fill:#f83d17}.I{fill:#e48415}.J{fill:#e1442e}.K{fill:#1e454f}.L{fill:#f9920e}.M{fill:#f8920e}.N{fill:#cc4533}.O{fill:#f9930e}.P{fill:#1d434c}.Q{fill:#fdfdfd}.R{fill:#cc4432}.S{fill:#fbae10}.T{fill:#fa960e}.U{fill:#c43}.V{fill:#fdc225}.W{fill:#339da6}.X{fill:#179f59}.Y{fill:#0b874e}.Z{fill:#80d368}.a0{fill:#30363c}.a1{fill:#1b424a}.a2{fill:#e7ebec}.a3{fill:#f67555}.a4{fill:#f7784d}.a5{fill:#1c424c}.a6{fill:#2f3b42}.a7{fill:#34979f}.a8{fill:#fa930d}.a9{fill:#fec323}.aa{fill:#179f58}.ab{fill:#368388}.ac{fill:#cf4533}.ad{fill:#bec3c6}.ae{fill:#181e21}.af{fill:#387d83}.ag{fill:#fb3d16}.ah{fill:#377f84}.ai{fill:#367e83}.aj{fill:#fefefe}.ak{fill:#e48515}.al{fill:#1b404a}.am{fill:#f28c17}.an{fill:#cc4631}.ao{fill:#66c164}.ap{fill:#214751}.aq{fill:#d54a36}.ar{fill:#179e58}.as{fill:#e0432e}.at{fill:#f67552}.au{fill:#099051}.av{fill:#f8900e}.aw{fill:#f57553}.ax{fill:#2f373e}.ay{fill:#357176}.az{fill:#2f383e}.aA{fill:#fb5431}.aB{fill:#1daa5c}.aC{fill:#1e724f}.aD{fill:#368288}.aE{fill:#cc4532}.aF{fill:#f67455}.aG{fill:#2e383e}.aH{fill:#fcc227}.aI{fill:#2e3b41}.aJ{fill:#1ea95c}.aK{fill:#fc4f32}.aL{fill:#d34532}.aM{fill:#67c065}.aN{fill:#18a059}.aO{fill:#fcd355}.aP{fill:#f5f5f6}.aQ{fill:#35878d}.aR{fill:#afb6ba}.aS{fill:#f47252}.aT{fill:#3b99a1}.aU{fill:#1ba75b}.aV{fill:#f4f5f6}.aW{fill:#1d3f48}.aX{fill:#1d454f}.aY{fill:#1b4049}.aZ{fill:#fb9b0e}.b0{fill:#1b4141}.b1{fill:#f57253}.b2{fill:#339ea7}.b3{fill:#e1452d}.b4{fill:#edd170}.b5{fill:#f93e17}.b6{fill:#b0b7b9}.b7{fill:#2e3d44}.b8{fill:#e2472e}.b9{fill:#f88135}.ba{fill:#358c93}.bb{fill:#cc4332}.bc{fill:#368389}.bd{fill:#cd4432}.be{fill:#ecedee}.bf{fill:#1eaa5d}.bg{fill:#ffda5d}.bh{fill:#1c3f49}.bi{fill:#368186}.bj{fill:#2c353a}.bk{fill:#2d363e}.bl{fill:#2c343b}.bm{fill:#fa950c}.bn{fill:#368086}.bo{fill:#67c062}.bp{fill:#e0e2e3}.bq{fill:#204e56}.br{fill:#b0b7ba}.bs{fill:#fbbd26}.bt{fill:#1c4049}.bu{fill:#1fa65f}.bv{fill:#fc4f33}.bw{fill:#3a8085}.bx{fill:#7fd368}.by{fill:#f77556}.bz{fill:#faba25}.bA{fill:#2d3b43}.bB{fill:#1da75b}.bC{fill:#0a8d50}.bD{fill:#fd5033}.bE{fill:#358a90}.bF{fill:#f59111}.bG{fill:#f9940d}.bH{fill:#368287}.bI{fill:#adb6ba}.bJ{fill:#fab822}.bK{fill:#17a158}.bL{fill:#172224}.bM{fill:#20454e}.bN{fill:#161b1d}.bO{fill:#f9a911}.bP{fill:#36979f}.bQ{fill:#fcb116}.bR{fill:#1b2023}.bS{fill:#d44633}.bT{fill:#19694a}.bU{fill:#2e3c43}.bV{fill:#35898f}.bW{fill:#f9a610}.bX{fill:#fa9111}.bY{fill:#29ab65}.bZ{fill:#358b92}.c0{fill:#e54a33}.c1{fill:#1b3f49}.c2{fill:#1c3e47}.c3{fill:#bbc0c4}.c4{fill:#1c434d}.c5{fill:#d34330}.c6{fill:#223f47}.c7{fill:#0a8b4f}.c8{fill:#1ca85b}.c9{fill:#2a343b}.ca{fill:#1d424c}.cb{fill:#1d4851}.cc{fill:#81d16b}.cd{fill:#f3764b}.ce{fill:#149855}.cf{fill:#56bc62}.cg{fill:#214048}.ch{fill:#e88817}.ci{fill:#fab824}.cj{fill:#161b1e}.ck{fill:#181c1f}.cl{fill:#f8900d}.cm{fill:#f18e10}.cn{fill:#24434c}.co{fill:#e04730}.cp{fill:#29636b}.cq{fill:#f87e40}.cr{fill:#f57651}.cs{fill:#f7f7f8}.ct{fill:#255861}.cu{fill:#36848a}.cv{fill:#f58912}.cw{fill:#fcd95d}.cx{fill:#f9b523}.cy{fill:#216f5b}.cz{fill:#f94f32}.cA{fill:#b0b7b8}.cB{fill:#182428}.cC{fill:#f98f14}.cD{fill:#171b1e}.cE{fill:#169956}.cF{fill:#28403f}.cG{fill:#f8b020}.cH{fill:#2b393f}.cI{fill:#79d067}.cJ{fill:#1a1f22}.cK{fill:#df692c}.cL{fill:#1f4d56}.cM{fill:#36858b}.cN{fill:#47383b}.cO{fill:#eb5334}.cP{fill:#fa9d17}.cQ{fill:#f87d40}.cR{fill:#204c55}.cS{fill:#213d46}.cT{fill:#fa920f}.cU{fill:#2b373f}.cV{fill:#151b1e}.cW{fill:#fa930e}.cX{fill:#d14432}.cY{fill:#d24432}.cZ{fill:#de432e}.d0{fill:#e84e34}.d1{fill:#349299}.d2{fill:#ea654a}.d3{fill:#273a42}.d4{fill:#225159}.d5{fill:#83d46a}.d6{fill:#ce4332}.d7{fill:#1f3942}.d8{fill:#187450}.d9{fill:#1d5948}.da{fill:#30363d}.db{fill:#f79928}.dc{fill:#2a3a40}.dd{fill:#35888e}.de{fill:#fcbf26}.df{fill:#da4935}.dg{fill:#206a49}.dh{fill:#faab11}.di{fill:#35868c}.dj{fill:#166745}.dk{fill:#2f4249}.dl{fill:#141b1e}.dm{fill:#fb940c}.dn{fill:#daddde}.do{fill:#1b4248}.dp{fill:#1fac5d}.dq{fill:#358d94}.dr{fill:#4cad77}.ds{fill:#11945a}.dt{fill:#89cd62}.du{fill:#30383f}.dv{fill:#de432f}.dw{fill:#2d363d}.dx{fill:#2e3940}.dy{fill:#1b1f23}.dz{fill:#151f22}.dA{fill:#f97c31}.dB{fill:#19a459}.dC{fill:#d94a36}.dD{fill:#243f48}.dE{fill:#2d383e}.dF{fill:#23535b}.dG{fill:#0f9854}.dH{fill:#21aa5e}.dI{fill:#ef9217}.dJ{fill:#fbac12}.dK{fill:#393f46}.dL{fill:#cf4332}.dM{fill:#5cbe63}.dN{fill:#7dd067}.dO{fill:#e86345}.dP{fill:#fbac11}.dQ{fill:#35ad6e}.dR{fill:#1d424b}.dS{fill:#215059}.dT{fill:#17262a}.dU{fill:#f28027}.dV{fill:#ec472f}.dW{fill:#2f6066}.dX{fill:#8d4533}.dY{fill:#1f3f46}.dZ{fill:#46b462}.e0{fill:#fba51f}.e1{fill:#2c272a}.e2{fill:#339ca5}.e3{fill:#cf4432}.e4{fill:#fa4e32}.e5{fill:#eb9213}.e6{fill:#3cad74}.e7{fill:#83d569}.e8{fill:#2e2629}.e9{fill:#1d6c52}.ea{fill:#fcb21f}.eb{fill:#2f383f}.ec{fill:#265961}.ed{fill:#161a1d}.ee{fill:#fbbc23}.ef{fill:#2c676e}.eg{fill:#2a2021}.eh{fill:#6dc965}.ei{fill:#19a359}.ej{fill:#fcaf1f}.ek{fill:#ef4c33}.el{fill:#23545c}.em{fill:#262b30}.en{fill:#e16234}.eo{fill:#fb5437}.ep{fill:#1b7355}.eq{fill:#f7ad1f}.er{fill:#15191c}.es{fill:#f6aa43}.et{fill:#57b961}.eu{fill:#358990}.ev{fill:#e36142}.ew{fill:#5fc267}.ex{fill:#f06d50}.ey{fill:#202529}.ez{fill:#1c4b4d}.eA{fill:#d14331}.eB{fill:#ca5241}.eC{fill:#d34331}.eD{fill:#34969e}.eE{fill:#b8bec1}.eF{fill:#285e66}.eG{fill:#ee6924}.eH{fill:#e8e9eb}.eI{fill:#38363c}.eJ{fill:#21a761}.eK{fill:#b2b5b6}.eL{fill:#1faa5e}.eM{fill:#ea664b}.eN{fill:#177852}.eO{fill:#23424a}.eP{fill:#a0b0b4}.eQ{fill:#fcb825}.eR{fill:#e58615}.eS{fill:#2c6b72}.eT{fill:#e9c86e}.eU{fill:#fbca4c}.eV{fill:#1e7359}.eW{fill:#2a2f35}.eX{fill:#1e4a52}.eY{fill:#36868c}.eZ{fill:#e44a33}.f0{fill:#f87f3e}.f1{fill:#fcb516}.f2{fill:#d24533}.f3{fill:#d9dcde}.f4{fill:#68c865}.f5{fill:#713b38}.f6{fill:#f78d19}.f7{fill:#e55840}.f8{fill:#f5b736}.f9{fill:#131719}.fa{fill:#dd4833}.fb{fill:#1e4b4b}.fc{fill:#f28e0f}.fd{fill:#358e95}.fe{fill:#fcb123}.ff{fill:#fbb81e}.fg{fill:#166744}.fh{fill:#d04e3d}.fi{fill:#428387}.fj{fill:#349097}.fk{fill:#f96f4a}.fl{fill:#182226}.fm{fill:#265a62}.fn{fill:#ee583e}.fo{fill:#159d57}.fp{fill:#191d20}.fq{fill:#ee8414}.fr{fill:#2b3138}.fs{fill:#2d6b71}.ft{fill:#e7583c}.fu{fill:#2e363d}.fv{fill:#fcac1a}.fw{fill:#f25435}.fx{fill:#d7dadc}.fy{fill:#2a666e}.fz{fill:#1eaa5c}.fA{fill:#2ea865}</style><path fill-rule="evenodd" class="a" d="m310 6l5 2 6 7 4 8 4 17 2 17 2 24 3 11 12 6 11 8 10 9 8 7h21l9 4 5 8 3 13 2 10 3 10h2l2-5 4-5-1-7-8-21-9-17-7-14-2-10v-7l4-10 6-7 10-5h13l10 5 5 4 5 8 4 13 2 12 2 26h9l10-19 11-12 7-4 9-2 10 1 8 4 6 7 4 8 1 5v9l-4 12-3 7h16l46 3 43 3h5l9-8 8-4 13-2 15 3 11 4 9 8 5 10 2 11-1 14-4 13-6 8-8 7-11 4h-11l-10-4-5 2-11 8-8 8-8 14-5 13-17 58-10 37-7 25-17 59-6 11-8 9-10 5 5 5 6 9 3 17 5 35 1 2 8-4h12l8 5 5 8 1 4 1 50 6 3 3 4v7l-3 5-6 3-24 2 2 4 4 5 2 12-1 11h30l51 3 33 4 12 3v3l-16 4-32 4-42 3-21 1-66 2-27 1-62 1h-172l-6 4-3 1h-19l-8-3-3-2-103-3-56-2-36-3-29-4-8-3-2-3 4-3 27-9 13-6 16-3 26-4 10-4 9-11 2-4-13-2-6-4-3-7 1-6 5-9 2-2 4-1 66-4 146-8 16-1-7-60-3-21v-7l-68 6h-20l-143-17-14-3-5-4-3-8-9-61-7-52v-12l2-3 2-11 3-3 6-1-2-16-1-14-5-19-2-14v-21l4-20 8-16 13-15 11-9 11-7 11-5 18-5 12-2h27l18 4 13 5 15 10 12 10 11 14 10 21 1 7 26 2 7 1-3-22-1-14v-11l2-21 5-22 7-16 7-11 7-9-1-9-5-13-8-15-10-15-4-9-1-7 3-6 3-2h9l8 4 3-13 6-7zm261 190v4l12 12 11 15 4 6 2-3 10-27 1-5-1-1-21-1zm-116 275l-98 8-6 1 1 12 4 33 1 4 5-2 6-3h13l7 4 5 6 2 7 2 41h16l91-5 23-1 9-2 2-3v-15l-7-55-4-20-5-4-13-3-27-3z"/><path class="b" d="m310 6l5 2 6 7 4 8 4 17 2 17 2 24 3 11 12 6 11 8 10 9 8 7 4 2-1 3 8-1 11 1 7 4 7 13 1 10-5 3-2 1 1 6 7 14 1 9 14 42h3v-6l9-5 3-4-1-8-5-11-2-6v-22l5-13 7-10 10-10 13-5h7l12 6 2 5-4 2-18 1-6 3-6 7-6 12-3 12v8l3 13 3 3 6-1 3-2 2-4 8-3 10-4 18-4h24l17 4 15 5 6 3 6 1 1 4 12 12 11 15 4 7-2 14-8 21-2 3-52 10h-5l-8-8-15-9-23-11-19-5-19-2h-24l-19 3-18 5-21 10-11 6-10 8-12 11-7 8-1 1-13-1-20-3 8 2v1h-7l-14-2v2l10 1 29 4-1 5-10 16-9 2-11 1-9-11-4-6-2-1 4 7 7 10v2l-22 5-28 5h-12l-44-6-12-1 3 2-4 1 2 2h-8l-85-12-13-2 1 3 79 11 43 5 21 3 15 2h17l39-7 37-6 26-5 99-19 32-6 37-6 52-10 16-2 30-5 4 1-1 4-17 4-48 9-46 8-35 7h-5v2l-32 5-57 11-8 1v-2h-2l-1 3-59 10-16 3h-5v2l-38 7h-20l-36-5-1-1-47-7-66-8h-6l1 3 35 4 62 8 20 2 45 6 21-1-3 1-1 5-4 3h-6l2-4h-4v3h-4v-3l-5 1-2 1-24-2-9-2h-18l-8-4-1-1-18-2-10-4-13-1-18-3-8-1h-11l-1 1-11 1-2 5-6-3 4 31 3 7 8 2v2l-3 3 5 1v2h21l4 2 57 8 30 3 27 2 9-2 9 3 5 5 5 2 3-1 1-4 14-1 3-4 4 1v-28l-1-24 6-1 2 1v50l-1 4 19-3 24-3 2-25 3-34h6l3 1 27-6 15-2h6l-1 22-3 26-1 1h-6l-3-12-4-6-4-3v-2l-4-1-10-4-15-1 1 1h11l12 5 8 6 4 6 1 12-24 5-12 2h-5v7l53-9 3-1 5-54 1-4h12l41-8h2v8l-7 40-3 3-38 7h-6v7l52-9 8-50 1-8 1-1 16-2 27-5h6l-3 24-4 27-16 3-28 4v6l10-1 37-7h2l6-38 3-20 2-4 11 1 20-4h11l2 3-3 25-3 18-2 5-13 3-26 4-1 6 20-3 25-4 2-6 3-23 6-33h5l1 2-1 13-1 3v8l5 20-1 5-10 3v5l22-1-1 2-21 5-2 6 4-1h10l-1 16-8 29-5 13-6 11-7 6-5-1-1-5 12-72-24 3-21 4-2 6 10-2 11-2 14-2h4l-1 12-7 40-3 16-3 3-34 3-6 1-1-1 1-12 3-19 5-40v-2l-8 2-34 6-7 1 1 6 27-5 10-2h5l-1 13-3 19-3 18-3 14-5 2-15 2-21 2-7 1-1-1 1-11 8-52 1-4-27 4-25 5-1 5 25-4 16-3h4l-2 15-7 45-1 1-23 3-22 2-1-1 1-17 3-34 1-11-26 4-24 4-6 3-5 48-1 10h-7l1-18 4-39 1-2-31 5h-6v2h-2l-1 6 13 9 9 10 5 8 4 10v5l-3 4h-2v2h-7v1h-10v1h-10l-4 1h-5v1h-9v1l-9 1h-12l-24-2-10-3v-9l3-12 4-8 7-8h3l2-4 4-1 1-3 3-1 4-4-36-4-4-1-19-1-5-2-11-2-25-2-19-2-20-2-2-1v3l-24 1v14l4 21 2 8 7 2v2h-9l-3-2-4-17-4-2v5h-1l-7-50-6-44v-12l2-3 2-11 3-3 6-1-2-16-1-14-5-19-2-14v-21l4-20 8-16 13-15 11-9 11-7 11-5 18-5 12-2h27l18 4 13 5 15 10 12 10 11 14 10 21 1 7 26 2 7 1-3-22-1-14v-11l2-21 5-22 7-16 7-11 7-9-1-9-5-13-8-15-10-15-4-9-1-7 3-6 3-2h9l8 4 3-13 6-7z"/><path class="c" d="m310 6l5 2 6 7 4 8 4 17 2 17 2 24 3 11 12 6 11 8 10 9 8 7 4 2-1 3 8-1 11 1 7 4 7 13 1 10-5 3-2 1 1 6 7 14 1 9 14 42h3v-6l9-5 3-4-1-8-5-11-2-6v-22l5-13 7-10 10-10 13-5h7l12 6 2 5-4 2-18 1-6 3-6 7-6 12-3 12v8l3 13 3 3 6-1 3-2 2-4 8-3 10-4 18-4h24l17 4 15 5 6 3 6 1 1 4 12 12 11 15 4 7-2 14-8 21-2 3-52 10h-5l-8-8-15-9-23-11-19-5-19-2h-24l-19 3-18 5-21 10-11 6-10 8-12 11-7 8-1 1-13-1-33-6-14-4-14-6-5-2v-5l-8 3-4-1-5-6-1-6v-3h-4l1 9 5 8-6 3-5-1-4-5-4-9-5-5h-10l-4-4 1-15 1-9 3-4h8l16 4 10 3 1-7 5-5 7-3 19 2 18 2-3-22-1-14v-11l2-21 5-22 7-16 7-11 7-9-1-9-5-13-8-15-10-15-4-9-1-7 3-6 3-2h9l8 4 3-13 6-7z"/><path class="d" d="m559 303h5l1 2-1 13-1 3v8l5 20-1 5-10 3v5l22-1-1 2-21 5-2 6 4-1h10l-1 16-8 29-5 13-6 11-7 6-5-1-1-5 12-72-24 3-21 4-2 6 10-2 11-2 14-2h4l-1 12-7 40-3 16-3 3-34 3-6 1-1-1 1-12 3-19 5-40v-2l-8 2-34 6-7 1 1 6 27-5 10-2h5l-1 13-3 19-3 18-3 14-5 2-15 2-21 2-7 1-1-1 1-11 8-52 1-4-27 4-25 5-1 5 25-4 16-3h4l-2 15-7 45-1 1-23 3-22 2-1-1 1-17 3-34 1-11-26 4-24 4-6 3-5 48-1 10h-7l1-18 4-39 1-2-37 6h-10l-1-1 1-57 3-1 2 1v50l-1 4 19-3 24-3 2-25 3-34h6l3 1 27-6 15-2h6l-1 22-3 26-1 1h-6l-3-12-4-6-4-3v-2l-4-1-10-4-15-1 1 1h11l12 5 8 6 4 6 1 12-24 5-12 2h-5v7l53-9 3-1 5-54 1-4h12l41-8h2v8l-7 40-3 3-38 7h-6v7l52-9 8-50 1-8 1-1 16-2 27-5h6l-3 24-4 27-16 3-28 4v6l10-1 37-7h2l6-38 3-20 2-4 11 1 20-4h11l2 3-3 25-3 18-2 5-13 3-26 4-1 6 20-3 25-4 2-6 3-23z"/><path class="e" d="m421 59h13l10 5 5 4 5 8 4 13 2 12 2 26h9l10-19 11-12 7-4 9-2 10 1 8 4 6 7 4 8 1 5v9l-4 12-3 7h16l46 3 43 3h5l9-8 8-4 13-2 7 1 1 2-12 3-9 7-8 13-4 4-7 14-6 15-7 14-12 35-7 24-1 2-9 1-1-4 3-19 2-9v-6l-1-2 10-27 1-5-45-2-8-4-24-7-6-1h-24l-18 4-10 4-8 3-3 5-4 2-6-1-3-6-2-10v-8l4-15 7-12 8-7 3-1 18-1 3-1-1-4-12-6h-7l-13 5-11 11-7 12-3 9v22l5 13 3 7-1 7-6 5-5 2v6l-3 2-3-4-8-26-6-18v-6l-5-8-3-7 1-5 6-3-1-10-7-13-6-3-19-1 1-4 1-1h16l9 4 5 8 3 13 2 10 3 10h2l2-5 4-5-1-7-8-21-9-17-7-14-2-10v-7l4-10 6-7z"/><path class="f" d="m579 364h3l-1 7-7 26-11 39-3 8-7 6-8 3-37 4-53 5-23 1-22 3-85 8-44 4-24 2h-29l-14-2-4-1h-12l-74-10-29-4-1-2-9-2-3-3v-3l-7-2-4-13-3-16v-11l1-3 3-1h21v-3l16 1 12 2 21 2 17 1 14 3 2 1 19 1 5 1 36 4-3 3-2 3-3 1-1 2-5 3-1 2-5 3-7 10-3 9-2 15 13 2 21 2h12l6-1v-1h11v-1h9v-1h8v-1h12l4-1 4 1v-2h2l2-4-1-8-6-12-8-10-10-8-6-4 1-4 1-2h2v-2l29-5h8l-3 33-3 26h7v-10l5-48 4-3 15-3 31-5h7v11l-3 34-1 17 22-2 23-3 7-45 3-15-31 6-14 1v-5l4-2 40-7h9l-2 18-7 44v5l7-1 36-4 4-1 5-25 6-39-36 7-7 1v-7l17-4 32-5 1 3-7 53-2 12v5l20-2 22-2 6-36 6-34-23 4-13 2h-3l1-6 5-2 30-5h11l-1 12-10 60 1 5 5-1 5-4 8-15 6-19 5-19 2-16-14 1v-5z"/><path class="g" d="m526 470l5 1 7 5 3 9 6 42 1 9h5l1-5h4l4 8-2 9-5 3-1 3-2 1v19l-3 7-5 3-18 1-3 1-11 1 3 1h22l27-2 4-4 1-2v-17l-1-15v-12l5-4 2-1h7l6 3 4 4 2 10-2 9-4 7-1 7-1 12v8l-2 3-7 2-19 2-41 2-22 2 1 3 3 1 25-1 38-2 39-1 1 6-5 1-195 10-40 2-54 2-28 2-7 3-6-1-6 1-5-2-7 1h-12l-47-5-35-5-55-7-8-2-3-3v-6l4-4 21 4 36 5 92 13 8 2h14l4-2h6l2-1v-2l-4-1h-32l-97-13-37-5-7-3 1-2h16l74 10 36 5h9l5-1 26-1 16-2h22l53-3 110-6 22-1 7-2h11v-2h-26l-68 3-98 6-12 1-13 2h-27l-15 1h-27l-3-2 1-1 23-2 37-2 11-1h10l-4-4h-23l-65 3-18 1-22-1-5-2v-1l5-1 74-4 57-3 9-2 3-1 2 1h24l27-3 6-5 2-6v-30l4-5 6 2 5 6 1 3v42l-13 2-53 2-8 1-2 5 30-2 82-3 15-1 51-2 18-3h6l1-1h18l5-3 3-5v-9l-2-9-1-18-7-48-3-13-2-2z"/><path class="h" d="m526 619h8l-5 14v9l2 10 6 8 12 6 14 1 11-4 6-5h2l2-5 2-4h30l51 3 33 4 12 3v3l-16 4-32 4-42 3-21 1-66 2-27 1-62 1h-161l-10-1 6-9 2-6v-14l-7-12-3-3v-2l49-3 21-1h16l6 12 7 8 8 4 5 1h9l9-3 6-4 6-10 3-11 8-1z"/><path class="i" d="m310 6l5 2 6 7 4 8 4 17 2 17 2 24 2 7-1 5-1 3h-19l-6 7 1 1v41l2 22 5 17 1 5h2l5 11 4 15 3 6v3h-4v2h9l11 3 21 2h47l8-1 2 5v1h-64l-64-4-46-4h-10l-4 1 2 10 3 8v2l9 2 50 7 50 5 9 3-4 3-11 8-8 8-6 5-7 8-1 1-13-1-33-6-14-4-14-6-5-2v-5l-8 3-4-1-5-6-1-6v-3h-4l1 9 5 8-6 3-5-1-4-5-4-9-5-5h-10l-4-4 1-15 1-9 3-4h8l16 4 10 3 1-7 5-5 7-3 19 2 18 2-3-22-1-14v-11l2-21 5-22 7-16 7-11 7-9-1-9-5-13-8-15-10-15-4-9-1-7 3-6 3-2h9l8 4 3-13 6-7z"/><path class="j" d="m472 129h7l12 6 2 5-4 2-18 1-6 3-6 7-6 12-3 12v8l3 13 3 3 6-1 3-2 2-4 8-3 10-4 18-4h24l17 4 15 5 6 3 6 1 1 4 12 12 11 15 4 7-2 14-8 21-2 3-52 10h-5l-8-8-15-9-23-11-19-5-19-2-20-1v-6l1-2h2l1-6v-3h3v-6l9-5 3-4-1-8-5-11-2-6v-22l5-13 7-10 10-10z"/><path class="k" d="m79 342h11l22 3 4 1 13 1 10 4 18 2 4 3 6 2h17l17 3 17 1 2-2h6l-2 1v3l4-2-1-2 5 1-1 3h5l4-2 1-5 4-2 20-2 5 3-3 1 1 2 1 32-1 18h-4l-3 4-10 1-4-1v5l-6 1-7-5-3-3-9-2-7 2-27-2-38-4-49-7-5-2h-12l-8-1v-2l-5-1 1-3h2v-2l-8-1-3-4-3-17-1-9v-9l4 1 1 1 3-5 11-1z"/><path class="l" d="m139 152h27l18 4 13 5 15 10 12 10 11 14 10 21 1 6-10 3-5 5-2 7-8-1-13-4-5-1h-8l-2 3-2 19 1 7 2 1-2 5-1 2v11l4 10v2l-5-1-10-8-3-1h-8l-5 3-3 6v6l4 6 3 3-5 5-3 2-8-10-6-8-6-11-4-18v-20l3-8 9-10 9-6-2-4-3-7-2-10-3-7-1-9h-2v-2h-2l-2 4h-5l-1-5 2-2h5l-1-4-4-3-5 1-3 2h-3l-2 5-4 3-4-2-6-6-1-4-5-3-2-3-5 1 4-3 12-5 15-4z"/><path class="m" d="m585 294h12l2 1v10l-3 18-9 30-3 7h-9l-17 2-1-5 10-4-1-7-4-17v-8l1-3 1-14-5-1-1 11-6 36-2 14-2 2-29 5-16 1 1-6 7-2 19-3 13-3 3-14 4-30-1-5h-11l-20 4-11-1-3 16-7 43-3 3-42 8h-6l1-7 8-2 33-5h3l1-13 5-35 1-3-38 7-11 1-8 53-2 6-45 8h-7v-7l44-8h2l6-37 2-13-6 2-37 7h-7l-5-1-3 37-2 21-4 2-46 8h-7v-7l38-7h3l-2-12-4-6-9-6-10-4h-12v-2l4-1 11 1 10 4 4 2v2l4 2 4 5 3 10v4l6-1 3-26 2-22-26 4-22 5-9-2v14l-4 40-1 5-9 2-30 4h-4l1-54h-5l-5-3-4-1 10-2 64-12 17-2h5v-2l3-1 17-2 58-11 5-2 10-2 15-2 32-6 32-5 24-4 11-2z"/><path class="n" d="m101 164l4 5 4 2 2 5 6 6 5-2 3-5 8-4 5 1 4 5 1 4-7-1-1 5h5l2-3h2v2h2l4 15 2 4 2 11 4 5-1 3-11 8-6 7-3 8v20l4 18 8 14 11 13 1 4h-2v3h-2v3h-2l-1 4-2 4h-8l-7-1-3-5-1-6-4-20 1-3h-2l-4-17-4-6-7-4-11-1-3-1-1-2-1-15-3-10-4-4-8-1-4 4 1 6 7 7v18l-2 2-12 4-8 7-2 2h-1l-1 17h-1l-1-14-5-19-2-14v-21l4-20 8-16 13-15 11-9 7-5z"/><path class="o" d="m638 186h3l6 15 5 7-1 5-11 8-11 14-7 14-11 36-4 15-6 20-6 24-14 48-13 45-5 10-7 7-10 4-14 2-81 7-22 3-43 3-48 5-55 4-32 3h-23l-17-1-16-3-44-5-74-10-3-2 1-4 36 4 57 8 30 4h15l6 2 9 1h29l58-5 61-6 43-4 13-2 23-1 83-8 10-2 8-4 4-5 7-24 11-39 4-15-12 3-14 2 1-2 21-5h-8l-13 1-1-2 12-1 7-1h8l4-10 8-26 3-18 1-10h-14l-21 4-16 3-62 10-26 5-14 2-7 2-46 9-22 4-14 1v2l-33 5-53 10-19 3-21 3-17-1-43-6-30-3-60-8-20-2-2-4 1-1 15 1 51 6 46 7 7 1 1 1 36 5h20l27-5 11-1v-2l44-8 36-6 1-2h2v2l28-6 48-9 15-2h6v-2l56-11 52-9 36-7 7-2v-3l-21 3-17 3-17 2-57 11-37 6-57 11-43 8-25 5-44 8-25 4-28 5h-17l-61-8-40-5-57-8-1-4 19 2 79 11 44 5 15 2h22l60-10 42-8 15-3 26-5 27-5 25-5 21-4 24-3 22-5 49-9 41-8 6-2 12-3 3-7 9-30 8-23 10-25z"/><path class="p" d="m93 404l16 1 12 2 21 2 17 1 14 3 2 1 19 1 5 1 36 4-3 3-2 3-3 1-1 2-5 3-1 2-5 3-7 10-3 9h-2l-2 17-3 2-36-4-23-3-18-3-27-4-9-2-3-3v-3l-7-2-4-13-3-16v-11l1-3 3-1h21z"/><path class="q" d="m423 252h26l26 5 19 7 10 4 13 8 4 3v2h2v3l-29 5-57 11-37 6-46 9-36 7h-5l4-7 7-9 12-13 13-12 14-10 17-8 21-7 14-3z"/><path class="r" d="m196 261h8l5 4 4 9 4 6 5 1 5-3-5-7v-9l4-1 2 10 5 6 6-1 5-1 1 5 11 4 13 5 18 4 3 2 8 2v1h-7l-14-2v2l10 1 29 4-1 5-10 16-9 2-11 1-9-11-4-6-2-1 4 7 7 10v2l-22 5-28 5h-12l-44-6-18-3 2-6 3-6-4 1 1-4h2l1-4 5-5-6-7-1-2 1-9 5-6 3-1h8l7 4 7 6 4 1-5-12v-11l4-6z"/><path class="h" d="m559 303h5l1 2-1 13-1 3v8l5 20-1 5-10 3v5l22-1-1 2-21 5-2 6 4-1h10l-1 16-8 29-5 13-6 11-7 6-5-1-1-5 12-72-24 3-21 4-2 6 10-2 11-2 14-2h4l-1 12-7 40-3 16-3 3-34 3-6 1-1-1 1-12 3-19 5-40v-2l-2 1h-6l4-2h6l1 1-1 13-3 21h2l3-22 3-14 3-1v-2h-2l1-8 1-10 1-1 1-9 2-9 3-20h2l4 6 5 4 7 1 3-4v-13l6-2h11l2 3-3 25-3 18-2 5-13 3-26 4-1 6 20-3 25-4 2-6 3-23z"/><path class="h" d="m154 622h10l36 4 36 5 1 2-6 9-3 6-1 5v7l3 8 5 9h-40l-118-4-36-3-29-4-8-3-2-3 4-3 27-9 13-6 16-3 26-4 10-4 3-2v17l3 10 8 7 11 4h15l10-5 7-7 2-4 1-15z"/><path class="s" d="m470 143h14l31 2 38 3 74 5 8 1 1 5-7 8-11 20-3 6-2 1h-11l-31-2-1-2-15-2-21-7-17-2-19 2-14 3-30-1-1-1 1-10 3-12 7-10 3-5z"/><path class="g" d="m95 595l21 4 36 5 92 13 8 2h14l4-2h6l2-1v-2l-4-1-22-1v-1l70-5 106-6 39-2 28-1 13-1h16l14 1v2l-30 2-11 1 1 3 3 1 25-1 38-2 39-1 1 6-5 1-195 10-40 2-54 2-28 2-7 3-6-1-6 1-5-2-7 1h-12l-47-5-35-5-55-7-8-2-3-3v-6z"/><path class="t" d="m241 227h10l59 5 51 3 67 2-2 9-23 4-18 5-21 10-6 1-7-2-57-6-43-6-9-3-5-13v-7z"/><path class="u" d="m421 59h13l10 5 5 4 5 8 4 13 2 12v20l-2 3h-2l-2 4-4 5-5 3-5 7-6 5 2 1-2 8-3 3-3 5-2 1-3 9-2 5h-2l1 3-3 7-2-3-1-10-5-8-3-7 1-5 6-3-1-10-7-13-6-3-19-1 1-4 1-1h16l9 4 5 8 3 13 2 10 3 10h2l2-5 4-5-1-7-8-21-9-17-7-14-2-10v-7l4-10 6-7z"/><path class="v" d="m678 137l11 2 10 5 8 9 4 11 1 12-2 13-4 11-9 10-8 5-7 2h-11l-12-5-8-6-5-9-2-8v-18l5-12 5-7 3-5 5-4 4-3z"/><path class="w" d="m422 246h24l19 2 19 5 12 6 1 6-6-1-16-6-26-5h-26l-18 3-20 6-20 9-12 8-10 9-12 11-9 10-8 12 16-2 49-10 44-8 36-6 40-8h10l-1 4-5 3-26 6-30 4-40 8-27 5-52 10-48 9-43 7h-22l-31-4-19-2-4-3 2-2-5-1v-1h11l42 6 8 1h12l28-5 19-4h3l-7-11-4-5v-3l3 1 12 16 11-1 9-1 2-5 7-11 2-5h-9l-30-5v-2h9l9 1-9-2v-1l12 1 19 3h6l12-13 8-7 11-9 12-6 19-9 22-6z"/><path class="x" d="m373 339h6l-1 22-3 26-1 1h-6l-3-12-4-6-4-3v-2l-4-1-10-4-15-1 1 1h11l12 5 8 6 4 6 1 12-24 5-12 2h-5v7l47-8h6l-3 3-14 3-6 2-24 4-6 3-5 48-1 10h-7l1-18 4-39 1-2-37 6h-10l-1-1 1-57 3-1 2 1v50l-1 4 19-3 24-3 2-25 3-34h6l3 1 27-6z"/><path class="y" d="m423 252h26l26 5 19 7 10 4 13 8 4 3v2h2v3l-29 5-41 8h-7l3-1-2-6 1-10 2-2-1-9-1-3-11-3h-19l-27 5-12 5-20 11-9 6h-2l-2 4-9 9-11 14v3l-8 2h-5l4-7 7-9 12-13 13-12 14-10 17-8 21-7 14-3z"/><path class="z" d="m579 364h3l-1 7-7 26-11 39-3 8-7 6-8 3-37 4-53 5-32 1v-1l5-1v-13l2-1v9l7-1 36-4 4-1 5-25 6-39-36 7-7 1v-7l17-4 32-5 1 3-7 53-2 12v5l20-2 22-2 6-36 6-34-23 4-13 2h-3l1-6 5-2 30-5h11l-1 12-10 60 1 5 5-1 5-4 8-15 6-19 5-19 2-16-14 1v-5z"/><path class="A" d="m310 6l5 2 6 7 4 8 4 17 2 17 2 24 2 7-1 4-2 1-19 1-4 3h-5l-3-9-5-12-7-13-10-15-4-9-1-7 3-6 3-2h9l8 4 3-13 6-7z"/><path class="B" d="m93 177l6 1-1 4-8 9-10 5-6 7-1 3v9l4 9 5 4 10 3h7l9-4 4-5 2-6 1-7h4l7 21-1 10 4 2 4 11 2 9v5l-5 2-7-2 5 8 1 4v13l-2-4-4-14-4-5-6-3-11-1-3-1-1-2-1-15-3-10-4-4-8-1-4 4 1 6 7 7v18l-2 2-12 4-8 7-2 2 1-9-1-3-3-1-2-5-1-7v-23l2-12 5-14 10-15 5-5 11-9z"/><path class="C" d="m195 230h8l16 4 5 2h8l1 3 1 16 3 10 4-1 30 7 45 10 12 2 1 5-4 6-3 2-7 2-11-1-31-6-13-4-11-5-5-2v-5l-8 3-4-1-5-6-1-6v-3h-4l1 9 5 8-6 3-5-1-4-5-4-9-5-5h-10l-4-4 1-15 1-9z"/><path class="D" d="m485 214h5l5 1 5 2 7 6-1 6-3 5v3l7 2 26 13 9 6h7l2-1 10-1 8-5 8-4 5-4h3l4 6-6 14-3 5-4 3-14 3h-8l-5-5-3-2 4 7v2l-11 3-11 1-8-7-10-6-10-4-19-9-10-3v-2l-2-1 4-1 2-4-10 3-6-2 6-7 7-7 5-1 1-4 3-1v-8z"/><path class="E" d="m165 219l4 1 8 13 11 20 2 6 4 2-2 5-1 2v11l4 10v2l-5-1-10-8-3-1h-8l-5 3-3 6v6l4 6 3 3-5 5-3 2-8-10-6-8-3-10-4-10-1-6v-26l4-6 9-8 10-7z"/><path class="F" d="m91 266l3 1 16 1 8 4 4 6 4 14 1 12 2 14v6l-4 1-42-6-16-2-2-3-1-23 2-8 4-6 8-4 7-2 5-2z"/><path class="G" d="m378 529l6 2 5 6 1 3v42l-13 2-53 2-8 1-2 5 30-2 51-2h30v1l-42 3-66 4-12 1-13 2h-27l-15 1h-27l-3-2 1-1 23-2 37-2 11-1h10l-4-4h-23l-65 3-18 1-22-1-5-2v-1l5-1 74-4 57-3 9-2 3-1 2 1h24l27-3 6-5 2-6v-30z"/><path class="H" d="m260 304l5 1 8 9 8 12v2l-22 5-28 5h-12l-44-6-18-3 2-6 6-10 6-5h22l4 7 15-5 7 1 8 5h3l5-7z"/><path class="I" d="m299 120l2 1 1 5-1 2 4 16 1 16 3 9 6 23 2 13 4 2v5l5-1 5 10v3l-8 3-2 4-7-1-24-2-4-18-1-1-4-27 3-16 1-12 4-18 3-5 2-1 1-4 2-2v-2h2z"/><path class="J" d="m363 407h3l1 18 1-13 2-5h2l1 3v9l-1 1-3 36-1 7-3 1h-13v-2l-7 4-26 2-1-1 1-21 3-28 2-5 29-5z"/><path class="K" d="m585 294h12l2 1v10l-3 18-9 30-3 7h-9l-17 2-1-5 10-4-1-7-4-17v-8l1-3 1-14-5-1-1 11-6 36-2 14-2 2-29 5-16 1 1-6 7-2 19-3 13-3 3-14 4-30 1-5-1-3-11 1h-8l-1 2-3-4 12-3 22-3 13-3z"/><path class="L" d="m483 386h5l-1 13-3 19-3 18-3 14-5 2-15 2-22 2 1-16 6-41 2-5 7-2z"/><path class="M" d="m533 377h7l-1 12-7 40-3 16-3 3-34 3h-1v-10l9-56 1-2 10-2 11-2z"/><path class="N" d="m472 129h7l12 6 2 5-4 2-18 1-6 3-6 7-6 12-3 12v8l3 13 3 3 6-1 3-2 2-4 8-3 10-4 18-4h24l17 4 15 5 6 3 6 1 1 4 12 12 11 15 4 7-2 14-8 21-2 3-52 10h-5l-8-8-11-7 2-1 10 6 8 7 16-2 6-1-4-7v-2l5 2 3 4h8l14-3 5-4 6-15 3-5 2-1v-6l-5-10-10-14-10-10-5-3-8-5-7-3-19-4h-32l-10 4-9 1-17 8-12 11-6 4-5 4-5 7-2-2 1-5 8-4 3-4-1-8-5-11-2-6v-22l5-13 7-10 10-10z"/><path class="O" d="m427 396h4l-2 15-7 45-1 1-23 3-17 1v-14l4-41 1-3 25-4z"/><path class="l" d="m252 418h13l8 3 12 6 11 10 8 12 4 10v5h-4v2l-5 1-3-2v-2l-4-1h-7l-9 3-8 2-7 2h-9l-4-9-5-12-6-14-1-9 3-3h2v-2z"/><path class="P" d="m523 305l7 1 1 1 11-1h8l2 3-1 3-2-3h-11l-20 4-11-1-3 16-7 43-3 3-42 8h-6l1-7 8-2 33-5h3l1-13 5-35 1-3-38 7-11 1-8 53-2 6-45 8h-7v-7l44-8h2l6-37 2-13-6 2-37 7h-7v-2h-6l3-3 10-3 41-8 7-2 30-5 21-4z"/><path class="Q" d="m517 621h14l-2 10-1 9v5h-67l-47-1 1-7 1-2h2l2-10 16-1z"/><path class="R" d="m72 407h20l5 2 1 4v7h2v-8l2-3h11l5 2 4 37v11h-10l-8-1-2-1-10-1-12-3-5-2-4-13-3-16v-11l1-3z"/><path class="S" d="m439 327h2v8l-7 40-3 3-38 7h-5l1-22 2-27 44-8z"/><path class="T" d="m333 91l1 2-1 3h-19l-6 7 1 1v41l2 22 5 17 1 5h2l5 11 2 11-5 1-2-6-3-3-5-24-5-18-1-1-1-16-4-17 1-4-2-3v2h-2l1 3-3 2-4 8-3 9-2 10-2 18-2 11 4 26 2 6 2 13h10l14 1 7 1 2-4 4-1 14 2 6 2 21 2h47l8-1 2 5v1h-64l-64-4-13-1-8-2v-3h3l-3-22-1-14v-11l2-21 5-22 7-16 7-11 7-9 1-3 7-2 2-2 19-1z"/><path class="U" d="m127 412h9l29 4 6 2 4 39v9h-12l-28-4-3-1-2-9-3-29z"/><path class="V" d="m492 317h6l-3 24-4 27-16 3-28 4 2-18 3-18 2-15z"/><path class="W" d="m325 482h20l2 5 5 37 4 31v15l-3 1-18 1-2-2-3-19-7-54-1-13z"/><path class="X" d="m238 421l3 1-4 3 1 9 7 16 7 18h9l9-3 7-2 8-2h7l4 2 3 3h5v-2l3 1-2 3h-2v2h-7v1h-10v1h-10l-4 1h-5v1h-9v1l-9 1h-12l-24-2-10-3v-9l3-12 4-8 7-8h3l2-4 4-1 1-3 7-3z"/><path class="Y" d="m199 264l7 1 4 6 4 11 3 2h8l9-2h6l-1 4-7 8 1 3 2 1 1-5 4-4 2-1h11l6 5 1 5-2 2-9 3-6 1h-9l-4-3 3 3v5l-2 2-4-1-4-3-3-1h-10l-5 3h-2v2l-3 2h-3l-1-6-4-2-20-2-8-5-1-7 4-6 2-1h9l8 7 4 2 1-2h4l-2-5h2l-1-4v-13z"/><path class="Z" d="m422 65h10l10 4 4 4 7 15 1 8v19l-3 9-4 3-5-10-2-5v-5l5-4 3-5-5 3h-5l-5-10v11l-6-1-6-3 2 4 10 5 2 7 2 9v8l-3 1-5-3-8-12-6-11-7-12-1-3v-9l2-7 9-9z"/><path class="a0" d="m291 350l4 1v2l20-2 2 3v7l-3 12-3 25-5 2-15 3 1 4-9 1-4-1-4 3v-53l6-1 1-2 8-3z"/><path class="a1" d="m309 409h8l-3 33-3 26h7l1 3 17 1v1l-55 5-24 2h-29l-14-2-4-1h-12l-74-10-29-4v-2l10 1 30 4 21 3 39 5 5-1 3-17h1l-1 15 13 2 21 2h12l6-1v-1h11v-1h9v-1h8v-1h12l4-1 4 1v-2h2l2-4-1-8-6-12-8-10-10-8-6-4 1-4 1-2h2v-2z"/><path class="a2" d="m602 275h7v3l-29 5-60 12-39 7-30 5-28 5-24 5-43 8-25 5-44 8-25 4-28 5h-17l-61-8-40-5-57-8-1-4 19 2 79 11 44 5 15 2h22l60-10 42-8 15-3 26-5 27-5 25-5 21-4 24-3 22-5 49-9 41-8z"/><path class="i" d="m381 273h6l1 3 5 2 8 3 2 3-1 7-3 1v3l2 2-4 2v2l-7 3-8 2-1 2 3 1-35 7-19 4-5-1 2-4 7-9 9-10 5-6 10-6 8-5 10-5z"/><path class="a3" d="m121 352h7l3 1 18 2 16 3 2 9 2 25v8h-9l-2-1-33-4-4-38z"/><path class="a4" d="m499 189h32l22 5 11 6 3 3 5 3 10 10 10 15 4 8v6l-4 2-4-6-5 1-12 8-5 4-6 2-4-2-4-3-3-3v-7l4-5 4-2 9-1 2-1v-15h-2v-2l-4-2-6-5-10-6-16-5-18-1h-10v6l-4-2v-3l-6 1-1 2-6-1-11 2 1-3 5-4 9-1z"/><path class="a5" d="m602 280l4 1-1 4-17 4-48 9-46 8-35 7h-5v2l-32 5-57 11-8 1v-2h-2l-1 2v-2l-8 2h-5l3-2-4-2 16-4 43-8 36-7 32-6 37-6 52-10 16-2z"/><path fill-rule="evenodd" class="a6" d="m82 231l8 1 5 5 3 10 1 17 14 1 10 6 3 9 2 8v5h2l1 10 3 13 1 6 2 4 11 1 4 1 2-5 1-3h2l1-3h4l-2 6-3 6h5l1 2 3 2-4 1 2 2h-8l-85-12-2-2-10-2-1-3 1-2h2l-1-5v-29l5-3 7-6 12-4 1-1v-18l-7-7-1-6zm9 35l-2 3-5 3-9 2-6 4-4 7-1 6 1 23 2 3 16 2 42 6 4-1-1-16-1-9-1-7-3-10-2-6-4-5-7-3-16-1z"/><path class="a7" d="m505 303h14l1 2h-9l-1 3-40 7-10 2-14 2-7 2-46 9-22 4-14 1v2l-33 5-53 10-19 3-21 3-17-1-43-6-30-3-60-8-20-2-2-4 1-1 15 1 51 6 46 7 7 1 1 1 36 5h20l27-5 11-1v-2l44-8 36-6 1-2h2v2l28-6 48-9 15-2h6v-2z"/><path class="a8" d="m176 360l13 1 27 4 3 2 2 30v9l-5 1-30-4-7-2-1-5-2-25z"/><path class="a9" d="m538 308h11l2 3-3 25-3 18-2 5-13 3-25 4v-12l1-9 2-9 3-20h2l4 6 5 4 7 1 3-4v-13z"/><path class="aa" d="m95 171h6l3 2-1 5-4 7 2 2h5v2l2 1h-4v2l-15 2-10 6-3 5v11l4 8 5 3 7 2 9-1 6-3 4-5 1-3v-11l-2-7-5-5v-3l13-2 4 4 4 10 2 16 2 4 2 8 4 8-1 23-2-4-4-14-4-4v-10l-7-21h-2l-2 11-4 6-5 4-6 2h-7l-12-4-6-7-2-6v-9l4-7 7-6 8-4 7-8 1-3h-6l-9 6-7 6-2 3h-2l-2 5-7 10-6 18-1 8v23l2 10 5 6-2 7-1 4-1 15h-1l-1-14-5-19-2-14v-21l4-20 7-14 5-4 7-8 11-11 5-1z"/><path class="B" d="m116 208l3 1 7 21-1 10 4 2 4 11 2 9v5l-5 2-7-2 5 8 1 4v13l-2-4-4-14-4-5-6-3-11-1-3-1-1-2-1-15-3-10-4-4-8-1-4 4 1 6 7 7v18l-2 2-12 4-8 7-2 2v-5l10-7 11-4v-16l-8-10 1-5 4-5 5-1 7 2h7l9-4 4-5 2-6 1-7z"/><path class="Z" d="m508 96l10 1 6 4 4 5 2 5v11l-4 11-4 5-2 1h-11l-13-1 1-5 5-8-11 9-5-1-9-4 2-5h2l1-5 7-12 5-6 7-4z"/><path class="ab" d="m75 460l36 4 57 8 30 4h15l6 2 9 1h29l58-5 61-6 28-2-1 3-21 1-21 2 3 1 27-3h12v1l-34 4-45 4-41 3-32 3h-23l-17-1-16-3-44-5-74-10-3-2z"/><path fill-rule="evenodd" class="ac" d="m678 137l11 2 10 5 8 9 4 11 1 12-2 13-4 11-9 10-8 5-7 2h-11l-12-5-8-6-5-9-2-8v-18l5-12 5-7 3-5 5-4 4-3zm-3 7l-8 5v2l-4 2-5 3-4 8-1 4v16l9 16 8 6 2 2 4 3v-2l9-2 9 1 2-7h5l1-1-1-9 3-1 1-5h-2v-2h-2v-7l5-2 1-7-3-11-8-9-7-3z"/><path class="ad" d="m550 589h15l-1 3-7 2-49 3-13 1-43 2-57 3-60 3-32 2-23 2-41 1-2-1v-3l2-1 37-2 8-1 43-2 200-11z"/><path class="ae" d="m499 287h10l-1 4-5 3-26 6-30 4-40 8-27 5-52 10-48 9-13 1-4-2 5-2 22-4 6-1 9-1 7-2h5l1-4 36-7 30-6 39-7 36-6z"/><path class="af" d="m460 115h1l1 12 8 1v1l-11 1-6 9-3 5-7 10-5 13v22l5 13 3 7-1 7-6 5-5 2v6l-3 2-3-4-8-26-3-8 1-9 3-8 8-15 4-6 3-6-3-1 3-1 2-4h2l2-4 10-10 4-5 3-3z"/><path class="a9" d="m336 99l5 1 9 5 16 12 3 1-9-9h3l12 12 1 6 9 14 9 13 4 8 4 3v5l-5 1-4-4-3-1v-2l-4-1-3-10-5-7v-2h-2l-2-3h-7l-4 1-1 4-11 3v6l-4 1h-6l-1 3-5 1-4-2-1-4 3-5 5-2 2-4 6-6v3h6l5-3-1-6-3-5-2-4h-2l-4-8-10-6-4-3 1-4z"/><path class="ag" d="m259 361l4 1v44l-1 1-17 2h-13l-1-1-1-23v-19z"/><path class="ah" d="m577 531h7l6 3 4 4 2 10-2 9-4 7-1 7-1 12v8l-2 3-7 2-19 2h-22l-14-1-4-2 37-2 7-1v-2l-4-2h6v-2l4-4 1-2v-17l-1-15v-12l5-4z"/><path class="ah" d="m283 629h21v1l-17 1h-13l4 5-1 2-4-3 1 5 4 10v11l-4 9-7 6-3 1h-8l-8-4-7-8-1-3v-13l4-9 10-8 4-1h14l1-1z"/><path class="ai" d="m659 142h3v2l-6 5-5 9-6 7-7 14-6 15-7 14-12 35-7 24-1 2-9 1-1-4 8-33 14-38 10-19 12-19 11-10z"/><path class="aj" d="m157 623l25 2 52 7-1 4-7 10-64 1-2-3-1-12-2-5z"/><path class="ak" d="m195 230h8l16 4 10 3v19l-1 15-2-4v-5h-4l1 9 5 8-6 3-5-1-4-5-4-9-5-5h-10l-4-4 1-15 1-9z"/><path class="ah" d="m558 618h9l8 4 4 5 3 8v8l-4 10-7 6-3 1h-12l-6-4-6-8-1-2v-14l4-7 6-5z"/><path class="al" d="m480 601h9l4 2-2 4-2 1-108 5-63 4h-28l-7-2v-2l2-1 16-2 60-3 52-3z"/><path class="ah" d="m128 619h9l8 3 6 9 1 4v12l-5 8-7 5-3 1h-9l-8-5-5-6-2-6v-9l4-9 6-5z"/><path class="am" d="m563 332h1l4 17-1 5-10 3v5l22-1-1 2-21 5-2 6 4-1h10l-1 16-8 29-5 13-6 11-6 4-1-2v-9l7-38 4-29 2-4 1-10 3-17h2v-3h2z"/><path class="an" d="m71 345l16 2 2 3 5 30v9l-1 1h-8l-19-4-3-4-3-17-1-9v-9l4 1 1 1 2-3z"/><path class="c" d="m373 339h6l-1 22-3 26-1 1h-6l-3-12-4-6-4-3v-2l-4-1-10-4-15-1v-12l11-2 26-5z"/><path class="ao" d="m139 152h24l-3 3-9 1-23 2-21 8-1 2 19-4h9l3 3 8 4 4 5v2l3 1 6 10 1 6v5l-3 2-2-1 2 3 6 1 2 2-1 9 1 3-3 3-12 9-8 7-2 4v26l3 12 4 9-1 3-5-9-4-18v-20l3-8 9-10 9-6-2-4-3-7-2-10-3-7-1-9h-2v-2h-2l-2 4h-5l-1-5 2-2h5l-1-4-4-3-5 1-3 2h-3l-2 5-4 3-4-2-6-6-1-4-5-3-2-3-5 1 4-3 12-5 15-4z"/><path class="ao" d="m95 192h7l8 8 3 6v11l-4 7-5 4-6 2-9-1-7-3-5-5-2-5v-11l4-6 10-6z"/><path class="Q" d="m356 628l5 1 4 11 1 4h-81l-7-9v-3z"/><path class="U" d="m182 418l29 4 8 2-2 5-8 9-6 10-3 10-2 10-1 1h-10l-2-1-4-36-1-13z"/><path class="ap" d="m62 434l4 1 2 5 3 13 2 1 12 2v2l9 2 1 2-20-1v3l8 2 84 11 34 4 10 2 38 2v1l-8 1v1l8 1v1h-20l-143-17-14-3-5-4-3-8-2-12z"/><path class="aq" d="m503 183h24l17 4 15 5 6 3 6 1 1 4 12 12 11 15 4 7-2 14-8 21-2 3-52 10h-5l-8-8-11-7 2-1 10 6 8 7 16-2 6-1-4-7v-2l5 2 3 4h8l14-3 5-4 6-15 3-5 2-1v-6l-5-10-10-14-10-10-5-3-8-5-7-3-19-4h-32l-10 4-9 1-15 7v-3l5-5 6-4 14-4z"/><path class="ar" d="m135 264l2 1 4 18 8 14 11 13 1 4h-2v3h-2v3h-2l-1 4-2 4h-8l-7-1-3-5-1-6-4-20 1-3-2-1v-13l-3-7-2-5 9 1 2-1z"/><path class="as" d="m132 416h11l7 2 7-1 6 2 4 5 2 14-2 4-7 3-3 3-12 2h-9l-3-2-2-13v-17z"/><path class="at" d="m329 360h11l12 5 8 6 4 6 1 12-24 5-16 2 1-18 2-17z"/><path class="h" d="m94 598l7 1 33 5 45 6 34 5 36 5 1 4-1 1h-9l-46-5-90-12-9-2-2-2z"/><path class="au" d="m223 429l2 1-3 6v7l5 8 5 13v2l4 1 13 2 9 6-9 1h-12l-24-2-10-3v-9l3-12 4-8 7-8h3l2-4z"/><path class="aj" d="m98 631l1 2v17l-3 1-38 2-46 5-7 2h-3l4-3 27-9 13-6 16-3 26-4z"/><path class="av" d="m266 295l27 5 23 3-1 5-10 16-9 2-11 1-9-11-10-14z"/><path class="aw" d="m589 300l5 1-2 13-5 16-7 18h-2v2l-4-1-4-13-3-10-4-8 1-13 4-2z"/><path class="g" d="m64 393l20 2h13l4 2 57 8 30 3 41 5 6 3-2 3-12-1-72-9-26-2-21-3-15-1-14-3-9-2-1-4z"/><path class="ax" d="m600 231h1v7l-6 27-1 5 1 4-5 1-1 3-58 11-25 5-3-1 5-3 1-3h-5v-1l12-2h7v-3h-2l-5-5-14-8-6-2-1-6 2-1 19 10 9 7 5 5 10-1 47-9 6-15 4-12 1-11z"/><path class="ay" d="m468 143l2 1-4 3-4 8-4 5-3 12-1 10 30 1 20-4 15-1 15 2 25 8 11 1 1 2h-18l-20-6-6-1h-24l-18 4-10 4-8 3-3 5-4 2-6-1-3-6-2-10v-8l4-15 7-12z"/><path class="az" d="m82 231l8 1 5 5 3 10 1 17 14 1 10 6 3 9 2 8v5h2l1 10 3 13-1 10h-7l2-2-1-16-1-9-1-7-3-10 1-2-2-1-3-6-8-4-16-1-3-2-1 4-5 2-14 4 3-5 10-3 1-1v-18l-7-7-1-6z"/><path class="aA" d="m72 407h20l2 6 1 14-4 4-4 2-1 2v7l-2 3h-2l1 2v7l-8-3-4-13-3-16v-11l1-3z"/><path class="aB" d="m309 12l4 1 3 3 5 14 3 13v32l-1 2h-4l-6-12-7-21-2-10v-15l3-6z"/><path class="aC" d="m508 90l10 1 8 4 6 7 4 8 1 5v9l-4 12-3 7-9-1-16-1v-1l-5-1v-1h20l5-5 4-11v-11l-4-8-5-4-7-2-12 1-5 3h-2l-2 4-7 10-4 9-3 3-2 3-8 1-10 5-6 5 2-4-2-2 4-1 3-5 11-1 11-20 11-12 7-4z"/><path class="aD" d="m553 451l2 1-8 4-1 2-14 2-81 7-22 3-26 1h-12l-27 3-4-1v-2l35-3h7l2-2 28-4 23-1 83-8h9z"/><path class="aE" d="m363 407h3l1 18 1-13 2-5h2l1 3v9l-1 1-3 36-1 7-3 1h-13v-2l-7 4-26 2v-2h2v-2l16-2 3-5 9-5 1-2h2l2-5 4-6 3-12 2-5z"/><path class="aF" d="m91 266l3 1 16 1 8 4 4 6 4 14-1 3-2-5v-5h-2l-2-8-4-2-8-5h-8l-10 5-8 2-1 3-1 5v9l3 7 1 5 2 3 1 8 3 2-18-1-5-2-1-2-1-23 2-8 4-6 8-4 7-2 5-2z"/><path class="aG" d="m300 412h12v5l2 4-1 16-2 11-4-2-1 4v-2l-5-2-8-11-8-7-9-6 1-4 3-3 12-1 1-1z"/><path class="aH" d="m451 349l11 1 26 5 4 1v7l-1 5-16 3-28 4 2-18z"/><path class="aI" d="m378 335l3 2v9l-1 9h2l1 2v15l-2 21-4 2-46 8h-7v-7l38-7h3l-2-12-4-6-9-6-10-4h-12v-2l4-1 11 1 10 4 4 2v2l4 2 4 5 3 10v4l6-1 3-26 2-22-6 1h-10l5-4z"/><path class="aJ" d="m199 264l7 1 4 6 4 13 8 2-2 3-15 4-1 2h2v4l-8 2-2 2h-6l-7-5v-2l-5-1-5-2-3-3v-2l-3 1 2-5h9l8 7 4 2 1-2h4l-2-5h2l-1-4v-13z"/><path class="aK" d="m121 352h7l3 1 18 2 10 2 3 1v3l-11-1-9-2-5-1-10 4h-3l1 12h10l5-1h16l5 3 1 4v2l3 2 1 4-7 1h-30l-3-2-1 3-2-10z"/><path class="aL" d="m91 349h13l6 2 2 8 2 14 1 20-14-1-3-2-3-13-4-24z"/><path class="aM" d="m252 418h13l7 2v1h-19l-9 2-4 3v7l10 26 3 8 10-1 10-5 7-6 5-9 2-5 1-11 7 6 9 13 4 10v5h-4v2l-5 1-3-2v-2l-4-1h-7l-9 3-8 2-7 2h-9l-4-9-5-12-6-14-1-9 3-3h2v-2z"/><path class="a9" d="m242 222l19 2 15 2v3h5v1h-9l-21-2h-10l-4 1 2 10 3 8v2l9 2 50 7 50 5 9 3-4 3-11 8-8 8-1-3 8-10 2-7-20-2-68-8h-10l-6 3-6 5-3-8-1-17v-2l-3 1 1-7 5-5z"/><path class="p" d="m579 364h3l-1 7-7 26-3 10h-2l-2 10-8 25-4 4-8-1-4 2 6-7 8-16 7-23 3-12 2-16-14 1v-5z"/><path class="aN" d="m117 189l5 4 4 10 2 16 2 4 2 8 4 8-1 23-2-4-4-14-4-4v-10l-7-21h-2l-2 11-4 6-5 4-6 2h-7l-12-4-6-7-2-6v-9l4-7 8-5 5-1-4 3-7 5-2 4v11l4 8 5 3 7 2 9-1 6-3 4-5 1-3v-11l-2-7-5-5v-3z"/><path class="aO" d="m538 308h11l2 3-3 25-3 18h-2l-1 4-8 1-3-3 6-9 3-5 1-13-3-6-1-1-6 8-7 1-4-2-6 1-4 18-4 3v-6l2-9 3-20h2l4 6 5 4 7 1 3-4v-13z"/><path class="aP" d="m469 146h38l57 4v2h12l56 4v2l-2 1-33-1-38-2-55-4-32-2-4-1z"/><path class="aQ" d="m95 595l21 4 36 5 92 13 3 1v2l-19-2-122-17-12-3v6l4 2 81 11 36 4 34 4-1 2h-9l-47-5-35-5-55-7-8-2-3-3v-6z"/><path class="aR" d="m165 219l4 1 8 13 11 20 2 6 4 2-2 5-1 2v11l1 5-5-5-21-41-6-12 1-5z"/><path class="aS" d="m313 368h1l-1 15-2 15-5 2-20 4h-9l2-6 12-13 8-8z"/><path class="t" d="m336 99l5 1 9 5 16 12 3 1-9-9h3l12 12 1 6 9 14 9 13 4 8v2l-5-1-7-9-10-15-4-4-6-3-3-6-7-6v-2l-5-2-12-8-7-4 1-4z"/><path class="aT" d="m505 303h14l1 2h-9l-1 3-40 7-10 2-14 2-7 2-46 9-22 4-11 1-5 1 1-4 55-11 22-4 15-2h6v-2z"/><path class="aU" d="m283 29l7 1 8 6 5 10 5 20 1 14-1 2h-2l-10-18-14-21-2-4v-9z"/><path class="F" d="m439 327h2v8l-2 10-1 1h-18l-28-1-1-2v-7l44-8z"/><path class="aV" d="m559 303h5l1 2-1 13-1 3v13h-2v3h-2l-1 11-2 11v7l-2 2-5 35-6 32-2 10h-2l1-16 4-23 4-27 1-10 3-26z"/><path class="ax" d="m264 353l5 2 1 2h-3l1 2 1 32-1 18h-4l-3 4-10 1-4-1v5l-6 1-5-3-1-4 3-3 24-3v-44l-22 3-4-1 4-2 1-5 4-2z"/><path class="o" d="m400 466l4 1-1 2-21 1-21 2 3 1 27-3h12v1l-34 4-45 4-41 3-32 3h-6l1-2 9-1h-25v-2l27-1 58-5 61-6z"/><path class="Z" d="m138 242l2 4 9 20 8 19 6 15 5 5-5 5-3 2-8-10-6-8-3-10-4-10-1-6z"/><path class="aW" d="m439 158l1 3-2 6v22l5 13 3 7-1 7-6 5-5 2v6l-3 2-3-4-8-27 4-4h6l4-7 1-19z"/><path class="ah" d="m508 596h11l-4 2h-5l-2 1h-10l-9 2-27 2-71 3-47 3-23 1h-13l-5-2v-1l125-7 39-2 28-1z"/><path class="f" d="m444 325l4 1-1 13-7 44-6 2-40 7h-7v-7l44-8h2l1-7h2l3-15z"/><path class="aX" d="m129 346l12 1 37 4 45 6 21-1-3 1-1 5-4 3h-6l2-4h-4v3h-4v-3l-5 1-2 1-24-2-9-2h-18l-8-4-1-1-18-2-10-4z"/><path class="aY" d="m267 357h3v57l10 1-2 1-1 7-5-2-7-2h-13l-14 3-6 3v-3l2-1-36-4-4-1-19-1-5-2-11-2-25-2-19-2-20-2v-2l15 1 13 2 37 3 68 9h5l1-2-5-2-24-3v-1h12l7-2 9 3 5 5 5 2 3-1 1-4 14-1 3-4 4 1v-28z"/><path class="aU" d="m453 88l2 4v29l-3 5-2 5-7-1-5-19-1-9-2 1 4 16 1 7v13l-5 6-4-1-5-13-8-13-8-16-2-8 3 3 9 16 10 16 6 2v-8l-3-15-11-6-2-5 13 5-1-12 3 3 3 7 7-1 3-1-2 5-5 4 1 7 4 9 2 3 3-3 2-8z"/><path class="al" d="m647 161l1 2-3 8v18l3 10 5 9-4-2-7-14-1-6-3 1-13 33-11 35-5 16-5 3-9 2h-5l3-2h2l-2-6 2-6 1 4v3h9l3-11 7-24 9-26 11-23 5-13z"/><path class="aZ" d="m326 225l15 2 6 2 21 2h47l8-1 2 5v1h-64l-64-4-13-1v-1h37l2-4z"/><path class="b0" d="m169 280h8l7 4 7 6 1 3-4 1-8-8-2-1h-9l-4 4-1 7 4 4 4 2 20 2 4 3 1 6 6-2v-2l7-4h10l6 3 2 2 5-1 1 3-4 5-5-1-8-5-9 1-11 4-4-6v-2l-5 1h-17l-5 4-3 4-5 1 1-4h2l1-4 5-5-6-7-1-2 1-9 5-6z"/><path class="b1" d="m187 370l8 1 4 6 10 4 2 1v3l-5 2h-8l-4 5h-7l-1-3-5-1v7l6 2 11 1v1h-11v2l11 2-4 1-14-2-2-2-1-15v-14l3 2 6-1z"/><path class="b2" d="m638 190l3 1 5 12 4 6-2 4-8 6-9 10-8 14-6 15-2 1 2-12 11-32z"/><path class="b3" d="m75 350l3 1 3 5 3 9 1 6 5 4 1 7-1 5-6 1-10-2-2 1-4-22 1-12 2-2z"/><path class="b4" d="m563 332h1l4 17-1 5-10 3v5l22-1-1 2-21 5-1 1-1 7 5 2 5 6v7l-3 1-3-4h-5l-1 12-3 12-2 4-1 10v5h-2l-2 12h-1v-8l7-38 4-29 2-4 1-10 3-17h2v-3h2z"/><path class="b5" d="m467 208l3 1-1 5-9 11-4 4 1 5 1 3h-2l-2-3-5 2-7 6v-3l1-1v-5h-2l-2 4-5 8h-8l1-7h2l1-6v-3h3l14-14 2 1-5 7-1 3 11-9 9-7z"/><path class="b2" d="m536 479h3l2 6 7 52 2 8 1 17v11l-4 5h-2v-13l-2-11-2-23-6-42v-9z"/><path class="b6" d="m190 214h9l10 2 12 5 9 6-1 10-8-1-13-4-5-1v-2h-5l-7-8-2-6z"/><path class="t" d="m386 126l13 1 7 4 7 13 1 10-5 3-4 3-9-14v-2l-4-2-8-9-1-5z"/><path class="ax" d="m593 304l3 3v9l-4 14-7 21-2 4-11 4-3-1-4-1-3-2 5-2-1-7-4-17v-8l2-2 6 12 2 8 3 10 3 1v-2h2l1-5 7-18z"/><path class="b7" d="m495 338l2 1v8l3-2v9l-3 17-3 3-42 8h-6l1-7 8-2 33-5h3l1-13z"/><path class="ag" d="m679 164l7 1 4 2 3 8-1 9-2 4-6 4h-7l-5-5-2-5 1-8 4-8z"/><path class="ao" d="m430 86l4 2 3 6-1 3-3-6v11l-6-1-6-3 2 4 10 5 2 7 2 9v8l-3 1-5-3-8-12-6-11-5-10 11-1 6 3h3z"/><path class="b8" d="m705 152l3 3 3 9 1 12-2 13-4 11-9 10-8 5-10 2-3-5v-3l3-2 10-1 4 1 2-7h6v-9l3-3-1-5h-2l-1-4 1-3 5-2v-7l-3-11-1-2 3 1z"/><path class="b9" d="m675 144h14l8 4 7 8 3 12-2 3-3-5-7-8-5-4-5-2h-7l-9 5-6 7-3 10h-2l-1 6-2-1v-7l3-11 4-5 3-5h2l1-3z"/><path class="ba" d="m60 333l15 1 51 6 46 7 7 1v1l-20-1 5 1v1l-15-1-68-9-20-2-2-4z"/><path class="bb" d="m171 308h22l1 4-7 3-7 8-6 8-12-1-5-1 2-6 6-10z"/><path class="bc" d="m451 593h24v1l-109 6-56 3-26 1-8 1-39 2v3h30v1h-15v2h-10l-23-3v-2l-3-1 5-2h16l5-1 26-1 16-2h22l53-3z"/><path class="as" d="m104 410h8l4 2 2 14v15l-2 2-6 2-6-4-1-2-1-16 1-11z"/><path class="bd" d="m260 304l5 1 8 9 8 12v2l-6 1-5-3-5-5-9-1-8-4-8-5-5-1v-1z"/><path class="be" d="m271 356l4 1v50l-1 4 19-3 15-2h7l2 3-37 6h-10l-1-1 1-57z"/><path class="bf" d="m139 279l2 4 8 14 11 13 1 4h-2v3h-2v3h-2l-1 4-2 4h-4v-2h2l-1-10-2-1v-2l-6-2-4-7v-13z"/><path class="bg" d="m422 67h11l6 3v4h-2l-2 5-5 5-5 4-9 1-6-5v-6l6-8z"/><path class="bh" d="m585 294h12l2 1v10l-3 18-9 30-3 7h-9l-17 2-1-5 2-1h10l3 2 11-3 3-10 6-17 3-12v-9l-2-6-16 2-12 1v-4h3l1-3z"/><path class="bi" d="m470 143h14l31 2 38 3 74 5 8 1 1 5-7 8-11 20-3 6-2 1h-11l-31-2v-2h20l20 1 3-3 8-16 6-9 4-2 2-6h-12l-103-7-42-3-7-1z"/><path class="bg" d="m506 98h10l6 3 5 6 1 6h-30l-10 1 4-8 6-5z"/><path class="ah" d="m406 625h6l-1 8-8 9-6 3h-9l-6-4-5-7-1-6 4-2 7 1 5 6h6l4-4z"/><path class="al" d="m569 407l1 4-8 29-4 6-5 4-8 3-37 4-53 5-32 1v-1l5-1v-13l2-1v9h12v4l21-1 38-4 14-1 4-1 14-1 3-2-2-3 1-7 2-2v8l5 1 6-3 7 1 4-5z"/><path class="bj" d="m259 286l18 5 10 2 3 2 8 2v1h-7l-5-1h-14l-6-2 1 7 4 7h-3l-5-4-13 2-10 2h-5v2h-2l-1-7-5-5 4 1 3 3h9l10-2 6-3-1-5-5-5z"/><path class="bk" d="m373 399h7v11l-1 15-2 3v-10l1-13-7 1-2 6-2 18h-1v-23l-13 2-30 5 1-5 6-3z"/><path class="bb" d="m586 219l7 5 6 10-2 14-8 21-2 3-52 10h-5l-8-8-11-7 2-1 10 6 8 7 16-2 6-1-4-7v-2l5 2 3 4h8l14-3 5-4 6-15 3-5 2-1v-6l-5-10-3-7z"/><path class="bl" d="m432 246h14l19 2 19 5 12 6 1 6-6-1-16-6-26-5-16-1v-3l-5 1z"/><path class="bm" d="m452 339l17 2 21 5 4 3-2 7-8-1-33-6z"/><path class="g" d="m589 357l1 4-14 48-8 28-5 10-7 7-7 3-3-1 5-3-8 1 2-2 10-4 5-6 7-24 11-39 3-11 2-1-2 11-11 39v3l14-48 4-14z"/><path class="bg" d="m513 190h13l20 4 12 4 12 9 10 9 9 13 5 9v5l-3-1-9-14-8-10-11-10-13-8-13-4-9-2-15-2z"/><path class="bn" d="m172 473l20 2 6 1h15l6 2 9 1 3 2h30v1l-15 2-1 1h-17l-17-1-16-3-24-3-1-2 3-1z"/><path class="bo" d="m382 122h16l9 4 5 8 3 13 2 10 3 10-4 10-3-1-7-14 1-5 6-3-1-10-7-13-6-3-19-1 1-4z"/><path class="h" d="m72 407l5 1 3 29 2 16-7-2-4-13-3-16v-11l1-3z"/><path class="bp" d="m506 591h54v1l-42 2-22 2-56 3-25 1h-15v-1l35-3 3-1z"/><path class="U" d="m275 358h7l2 2 4 16v8l-11 12-2-2z"/><path class="b2" d="m256 634h7l1 2-1 9-5 5-5 4-5 11-4-1-2-4v-10l3-8z"/><path class="bq" d="m157 317h5l-2 6-3 6h5l1 2 3 2-4 1 2 2h-8l-57-8-1-2h14l2 1 11 1 1-2h7v-6l2 2 2 4 11 1 4 1 2-5 1-3h2z"/><path class="bg" d="m101 269h6l8 5 4 6 5 19 1 6v10l-5-1-2-4-3-15-4-12-6-7-5-3z"/><path class="b2" d="m367 529h3v36l-3 5-5 1-1-1-2-21v-13z"/><path class="br" d="m142 238h2l7 16 9 19 3 10-3 9-3-4-6-15-9-20-3-7v-5z"/><path class="bs" d="m311 351h4v10l-2 5-14 9-5 3v-10l3-13 3-2z"/><path class="bt" d="m450 185h44l-4 2-14 4-5 3-4 1-3 5-4 2-6-1-3-6z"/><path class="bu" d="m285 461h7l4 2 3 3h5v-2l3 1-2 3h-2v2h-7v1h-10v1h-10l-4 1h-5v1l-14-1-2-2 1-3h9l9-3 7-2z"/><path class="as" d="m443 232h1v6l-1 2 9-7 4 2v2l3 1 1 2 4 1-1 2 7 2 5-2h3l-1 3-4 2 1 2-9-1-19-2-20-1v-1h8l2-5 5-7z"/><path class="bv" d="m93 350h10l7 1v17l-5 5-6 5-3-10-1-5-2-9z"/><path class="bw" d="m63 404h8l5 2-4 2h-3v14l4 21 2 8 7 2v2h-9l-3-2-4-17-4-2v5h-1l-2-17 5 2z"/><path class="bx" d="m309 12h3l4 8 4 19v4l-2 1h-6v-2h-4l-3-11v-13l2-5z"/><path class="by" d="m678 156h7l8 3 3 4 2 6v13l-2 6h-2v-15l-3-6-5-4h-9l-5 4-3 9 1 8 2 8-4-2-3-7v-13l4-8 6-5z"/><path class="bz" d="m358 341h11l-1 2-9 3-8 4-5 2v6l1 2-19-1v-12l11-2z"/><path class="ao" d="m452 88h1l1 8v19l-3 9-4 3-5-10-2-5v-5l5-4 3-5-5 3h-5l-1-4 5 1 8-4h2z"/><path class="bA" d="m314 380l2 3h2v17l-1 5-9 2-30 4h-4l1-4 1 2 3-3 10 1 2-1v-4l17-3 2-1 2-15z"/><path class="bB" d="m242 288h11l6 5 1 5-2 2-9 3-6 1h-9l-2-3h2l1-6 3-5z"/><path class="h" d="m550 589h15l-1 3-7 2-49 3-13 1-43 2-24 1h-13l1-2 80-4 22-2 21-1-12-1v-1z"/><path class="g" d="m325 482h20l2 5 5 37 4 31v15l-3 1-18 1-2-2-3-19-1-16h1l2 12 2 16 2 8 17-4v-13l-9-67v-3h-15l-5 1 1 9-2 3-1-13z"/><path class="bC" d="m213 282l4 2h8l9-2h6l-1 4-7 8 2 4v3l-10-2v-2h-18v-2h-2l1-3 15-4 1-1-7-2z"/><path class="ag" d="m660 179l3 1 3 10 4 5 7 3 8 1 2 7-11 3-1 2-3-3-8-6-6-9-3-7h4z"/><path class="bD" d="m78 273h6v1l-9 3-3 5 1 7v17l1 9 6 2v1h-9l-5-2-1-2-1-23 2-8 4-6z"/><path class="bE" d="m395 602h14v1l-7 1-1 1-40 3-40 2h-13l-5-2v-1l72-4z"/><path class="U" d="m302 417h7v9l-2 15-2 2-7-9-6-7-4-4 1-3z"/><path class="bF" d="m508 349l15 4 7 4 9 1 3-1 2-3-1 5-13 3-25 4v-12z"/><path class="bG" d="m396 372h20l3 2-2 4-3 1 1 2-22 4h-5v-9l2-3z"/><path class="h" d="m59 347l4 1 1 1 2-2 6 36v3h-6l-3-4-3-17-1-9z"/><path class="bH" d="m562 293h11l3 2-7 1-1 2-7 2-27 4-16 3h-8l1-3h8l-9-1v-1z"/><path class="b2" d="m616 210h2l1 3-9 31-7 22-3 1-2-3 5-21 6-18 4-9z"/><path class="bq" d="m267 357h3v57l10 1-2 1-1 7-5-2-7-2h-19l1-6 14-1 3-4 4 1v-28z"/><path class="bI" d="m156 347l15 1 45 6h20l27-5 14-2-1 3-5 2-19 3-21 3-17-1-50-7-8-2z"/><path class="bJ" d="m533 377h7l-4 20-4-1-5-5v-2l-8-1-7-3 2-4z"/><path class="a6" d="m551 343h1l-1 16-2 6-1 1-29 5-16 1 1-6 7-2 19-3 9-1v3l1 2 7-1 1-1v-11z"/><path class="U" d="m308 371l2 2-3 5-10 9-2 3 1 9-6-1-1 3 2 2-5 1h-9l2-6 12-13 8-8z"/><path class="bK" d="m408 94l3 3 9 16 10 16 6 2 1-3v-13l2 4 1 7v13l-5 6-4-1-5-13-8-13-8-16z"/><path class="bL" d="m169 280h8l7 4 7 6 1 3-4 1-8-8-2-1h-9l-4 4-1 7 4 4 4 2 19 2v1h-20l-1 5-5 5-5 3-2-1 1-3h2l1-4 5-5-6-7-1-2 1-9 5-6z"/><path class="h" d="m602 275h7v3l-29 5-60 12h-6l4-2 14-3h-5l4-2 58-11z"/><path class="bM" d="m387 330l3 1-4 2 5 1v1h-5l-2 26-2-4v-2h-2v-18l-2-1-10 1-3 4-12 2h-5l-1-4 5-2h5v-2l3-1 17-2z"/><path class="ah" d="m638 186h3l6 15 5 7-1 5-11 8-11 14-7 14-2 7h-2l1-6 8-16 6-8 9-10 7-5-2-5-6-12-1-3-2-1-3 10-9 23-9 28h-2l2-9 10-30 10-25z"/><path class="a9" d="m556 387l4 1 2 4 3-1-1 7-5 16-2 3h-3l-1-2-4-2 3-13 2-12z"/><path class="bN" d="m444 323h4v3l-4-1-1 11-5 31-2 6h-1v-9l6-37-6 2-37 7h-6v-2l35-8 2-1z"/><path class="b2" d="m131 621h4v8l-3 4-5 3-5 9-4 2-3-5v-7l4-7 6-4z"/><path class="b2" d="m557 621h6l1 1v6l-8 8-6 10-5-1-1-7 2-8 5-5z"/><path class="bO" d="m375 122l6 1-1 4h5l-2 1 3 6 8 9 4 4 8 13-1 2-9-11 6 12-1 2-4-3-5-10-13-18-5-9z"/><path class="bP" d="m505 303h14l1 2h-9l-1 3-40 7-10 2h-5l-1-4z"/><path class="bQ" d="m242 222l19 2 15 2v3h5v1h-9l-21-2h-10l-6 2v16l-2 3-1-3v-10l-3 1 1-7 5-5z"/><path class="b2" d="m56 342l9 2 1 3-2 3-5-3 4 31 3 7 6 1v2h-10l-3-2-5-32v-11z"/><path class="bR" d="m316 354h1v7l-2 6-10 7-9 7-12 12-6 9-1 2 13-1 2 4-9 1-4-1-4 3v-16h3l9-10 2-4 1 2 3-3h2v-2l14-10 4-2z"/><path class="bS" d="m176 360l13 1 27 4 3 2 2 30v9l-4 1 1-7v-30l-12-1-17-3-13-3z"/><path class="bT" d="m84 229l9 3 5 7 2 8 1 15 13 2 6 3 1 2-6-2-2-1-11-1-3-1-1-2-1-15-3-10-4-4-8-1-4 4 1 6 7 7v18l-2 2-12 4-8 7-2 2v-5l10-7 11-4v-16l-8-10 1-5 4-5z"/><path class="ao" d="m283 29l7 1 4 4 4 7v9l-4 1-2-1v-2l-4-2-5-5-3-5v-6z"/><path class="bU" d="m317 324h15l2 2-54 10-13 1-4-2 5-2 22-4 6-1 9-1z"/><path class="bV" d="m553 451l2 1-8 4-1 2-14 2-13 1h-28l-1-2 21-2 8-2 19-2h9z"/><path class="bg" d="m556 237h6l5 4 1 2v7l-5 4-7-1-4-4-1-7z"/><path class="aL" d="m121 352h7l3 1 18 2 10 2 3 1v3l-11-1-9-2-5-1-10 4h-3l2 28-2-2-3-30z"/><path class="ah" d="m294 476h5v2l6 1v1l-54 5h-6l1-2 9-1h-25v-2l27-1z"/><path class="b6" d="m209 262h12l2 9 5 8-6 3-5-1-4-5-4-9-1-4z"/><path class="bW" d="m539 380l1 3-3 18-4 1-5-6-7-4-5-3-8-1-4 1-1 6-1 1-1 4-2-4 1-11 1-2 10-2 5 1-3 2 6 3 8 2 6 7 3 1 2-16z"/><path class="bX" d="m499 189h32l1 2-19-1v2l15 1 5 1v1h-29l-21 3-9 3 1-3 5-4 9-1z"/><path class="b2" d="m105 591l18 1 36 5 27 4 28 4v2l-17-2-71-9-21-3z"/><path class="bY" d="m57 206l3 1-1 6h-2l-1 7-1 12-1 3-2 11h2l1 11v1l4 16 1 5 2 1-1 4-1 15h-1l-1-14-5-19-2-14v-21l4-20z"/><path class="bZ" d="m155 605l18 2 50 7 21 3 3 1v2l-19-2-64-9-13-2z"/><path class="c0" d="m166 367h1l2 25v8h-9l-2-1-16-2 1-2-3-2 1-1h25z"/><path class="c1" d="m74 388l25 2 2 1-1 5 6 1v-3l-2-1h4l-1 4 13 1 2 2-14-1-10-2-2-1h-12l-8-1v-2l-5-1 1-3z"/><path class="W" d="m574 579h2l3 4v5l-5 3-10 3-4 2h-14l-6 1h-16l-4-2 37-2 7-1v-2l-4-2h6v-2l5-3z"/><path class="bb" d="m591 309h1l-1 8-5 16-6 15h-2v2l-4-1-4-13v-5l6 5 4-1 8-17z"/><path class="c2" d="m444 325l4 1-1 13-4 26-3 7-3-1 2-16z"/><path class="c3" d="m58 322l19 2 43 6-4 3-14-1-43-6z"/><path class="c4" d="m569 407l1 4-8 29-4 6-5 4-8 3-14 1 2-2 3-2-2-3 1-7 2-2v8l5 1 6-3 7 1 4-5z"/><path class="c5" d="m259 361l4 1v6l-3-1-15 3-14 1v14h-1v-19z"/><path class="c6" d="m549 322l2 3v9l2 1v8h-2l-1 8-1 4v8l-2 2-10 1 2-1-3-4 7-3 3-14z"/><path class="b2" d="m646 154l1 4-11 18-6 12-8 14h-2l1-5 8-18 10-18z"/><path class="c7" d="m197 265l2 1-2 4 4-1 2 2-1 13h1l4 1-7 6h-2l-1 3h-7l1-3h4l-2-5h2l-1-4v-13z"/><path class="c8" d="m86 193l3 1-10 6-3 5v11l4 8 5 3 7 2 9-1 6-3 4-5 1-3v-14l2 2v15l-4 6-5 4-6 2h-7l-12-4-6-7-2-6v-9l4-7 8-5z"/><path class="o" d="m137 468l31 4 6 2-3 4-20-2-15-2-3-2 1-2h3z"/><path class="c9" d="m429 322h7l2 3-9 1-15 4-19 4h-3l-1 2v-2h-6l3-3 10-3z"/><path class="ca" d="m433 149h3l-2 8-3 3-3 5-2 1-3 9-2 5h-2l1 3-3 7-2-3-1-9 3-5 2-6h3l2-5 5-7 2-5z"/><path class="cb" d="m470 314l7 1-1 2-17 5 1 2-12 1v-2l-4 1h-7l-2-3 5-2 10-2 15-2z"/><path class="cc" d="m382 122h16l9 4 5 8 3 14h-2l-4-10-4-7-6-3-19-1 1-4z"/><path class="ao" d="m252 418h13l7 2v1h-19l-9 2-4 3v7l10 26 3 8 10-1 7-2v2l-9 3h-9l-4-9-5-12-6-14-1-9 3-3h2v-2z"/><path class="al" d="m596 315l1 3-5 19-7 21-2 2h-8l-17 2-1-5 2-1h10l3 2 11-3 3-10 6-17 3-12z"/><path class="cd" d="m76 407h16l-1 5h-2l-1 4-7 8-1 13h-1z"/><path class="ah" d="m60 333l15 1 33 4 2 2-18-1 15 2 3 2-14-1-35-4-2-4z"/><path class="ce" d="m169 284h9l8 7 2 2 9 1 1 2-7 1h-4l-2 2-2-1v-2l-5-1-5-2-3-3v-2l-3 1z"/><path class="h" d="m469 144l22 1v1l-22 1-1 2 64 4 41 3v1h-15l-76-5-13-1-3-1-1-3z"/><path class="h" d="m325 406h5l-6 4-5 48-1 10h-7l1-18 3-27h1v11l-2 20v12l1-1 4-30 2-26z"/><path class="cf" d="m488 118l3 1 1 9 5-2 6-5 6-1-4 5-2 5-4 6 19 1 6-3-2 4-2 1h-11l-13-1 1-5 5-8-11 9-5-1 3-1-2-13z"/><path class="cg" d="m157 317h5l-2 6-3 6h5l1 2 3 2-4 1 2 2h-8l-6-2v-2l-4 1-2-2-3-1 1-2 6-1 4 1 2-5 1-3h2z"/><path class="ch" d="m398 335h3l-1 3 11 1 5 5v1h-24l-1-2v-7z"/><path class="B" d="m321 33h1l2 10v32l-1 2h-4l-6-12-6-18v-2h2l4 13 2 5h2l1 2 4-2v-18l-1-4z"/><path class="ci" d="m439 327h2v8l-3 4-7-4h-23v-2z"/><path class="cj" d="m481 312h10l3 5-13 3-16 3h-8l4-3 15-4v-3z"/><path class="aj" d="m525 312h6l1 4-2 8-3 2-5-1-6-5 1-5z"/><path class="ck" d="m450 251h8l7 1 12 3 9 1 3-1 7 4 1 6-6-1-16-6-20-4-5-2z"/><path class="cl" d="m395 150l5 4 5 7 3 3 7 14 1 9 1 5-2-1v-3l-3-1-8-18-7-14z"/><path class="cm" d="m559 373h10l-1 16-7 26-2-4 5-16v-11l-4-4v-2l-5-2v-2z"/><path class="cn" d="m516 284h7l-1 2h8l5-1h13v1l-42 8-3-1 5-3 1-3h-5v-1z"/><path class="co" d="m698 203h2l-2 6-9 6-10 2-3-5v-3l3-2 10-1 5 1 3-1z"/><path class="bg" d="m678 145h9l10 5 6 7 1 7-9-9-6-4-3-1h-10l-8 5h-2l2-4 7-5z"/><path class="cp" d="m309 409h8l-3 33-1 8-2-3v-7l1-3 1-17-2-3 1-5-19 2-1 1h-12v-1z"/><path class="cq" d="m532 190l8 1 13 3 11 6 3 3 5 3 10 10 10 15 4 8v6l-4 2-1-5 3 1-3-9-7-11-8-10-12-10-8-5-18-5-6-2z"/><path class="ao" d="m315 20l2 3 3 16v4l-2 1h-6v-2h-4l-3-11 1-4v2h2l1 4h4l2-4z"/><path class="cr" d="m111 373h1l1 6v12l-12 1-3-2 2-4 8-8z"/><path class="cs" d="m350 372h6l3 3 2 8-4 3-7-1-3-4v-6z"/><path class="ct" d="m373 399h7v11l-1 15-2 3v-10l1-13-9 1-4-1-16-1v-1z"/><path class="b2" d="m66 405l5 1 1 2h-3v14l4 21 2 8 5 1-4 2-4-1-2-5-1-10-1-2 1-2-2-1 1-7h-2v-6l-1-2v-12z"/><path class="cu" d="m221 605h21l-3 2h-2v3h30v1h-15v2h-10l-23-3v-2l-3-1z"/><path class="cv" d="m367 440l2 1v15l-1 7h-12l10-20z"/><path class="cw" d="m563 332h1l4 17-1 5-5 2-4-1 1-11 2-10h2z"/><path class="a3" d="m126 386l3 1 29 1v1l-16 1-1 3 3 2-1 1h-9l-9-1z"/><path fill-rule="evenodd" class="ah" d="m367 529h3v36l-3 5-5 1-1-1-2-21v-13zm-3 4l-4 5v9l3 23 5-5v-18l-1-14z"/><path class="ah" d="m189 409l16 1 24 3 6 3-2 3-12-1-31-4-3-2 16 1 24 3 4 1v-2l-15-1-27-4z"/><path class="b2" d="m588 354l1 4-14 48-5 17h-1l1-10 11-39 5-16z"/><path class="b2" d="m508 596h11l-4 2h-5l-2 1h-10l-2 1h-17l-41 2h-12l2-2 39-2 28-1z"/><path class="bZ" d="m533 298h13l4 2-14 2-2 2-16 3h-8l1-3h8l-9-1v-1z"/><path class="cx" d="m343 263h8l9 3-4 3-11 8-8 8-1-3 8-10 2-7h-3z"/><path class="ab" d="m615 251h1v7l3-2-2 9-2 6-2 1-2 5-2-1-19 1v-1l17-4 3-7 4-13z"/><path class="h" d="m384 407h1l-1 18-3 36-5 1-1-1 1-17 2-19h1v22l-2 13 2-1 2-27z"/><path class="cy" d="m205 455h1v14l8 2 9 1 28 1 1 2-3 1h-12l-24-2-10-3v-9z"/><path class="cz" d="m308 371l2 2-3 5-10 9-2 3 1 9-6-1-1 4h-2l1-5 4-7 3-7 8-9z"/><path class="cA" d="m559 337h1v7l-1 11v2h-2v5l22-1-1 2-21 5-3 8-1 6h-1l1-14 2-4 1-10z"/><path class="b2" d="m576 536h5l1 6-1 15-2 1-3-3-2-10v-6z"/><path class="cB" d="m196 261h8l5 4 1 6-4-5-7-1-4 4v17h-2l-3-7v-11l4-6z"/><path class="cC" d="m329 360h11l3 1v2l-8 6h-2l-1 4-2 2h-3l1-14z"/><path class="cD" d="m286 294l12 1 10 2v1h-5v2l10 1 4 2h-10l-30-5v-2h9l9 1-9-2z"/><path class="aU" d="m432 90l3 3 2 4-1 3-1 5 2 4 1 19h-1l-4-20-11-6-2-5 13 5z"/><path class="cD" d="m482 369h7l-3 2-9 3-9 2-20 2 1-4z"/><path class="cE" d="m199 264l7 1 4 6 2 8-3-1-5 2-1 2h-2l1-11-4-1-2 1 1-4z"/><path class="cF" d="m502 124v3l-5 8-1 4 4 2v2l-2 1h-14l-13-1v-1l18-1 3-1-1-4-2-2 8-6z"/><path class="by" d="m357 409h7l-1 10-8 2-2 4-4 1-2-2 4-4 3-2z"/><path class="cG" d="m371 309h5l-3 2-43 9-5-1 2-4 3-3 4 3h7l23-5z"/><path fill-rule="evenodd" class="h" d="m526 310h4l1 5v8l-4 5-7-1-8-7-1-4h-2v5h-1l-1-9h9zm-3 2l-8 3-1 5 6 5 5 1 4-4 1-7-1-3z"/><path class="cH" d="m170 304h22l4 3 1 6 6-3h3v3l-9 3-4-6v-2l-5 1-17-1z"/><path class="cI" d="m283 29l7 1 4 4v3l-5 3-7-1-2-3v-6z"/><path class="cJ" d="m378 335l3 2v9l-1 9h2l1 2v6l-5-1v-16l1-7-6 1h-10l5-4z"/><path class="cK" d="m91 266l3 1 16 1 8 4 4 6 4 14-1 3-2-5v-5h-2l-2-8-4-2-8-5h-13l-5 3h-5l4-4h2z"/><path class="cL" d="m239 356h5l-3 1-1 5-4 3h-6l2-4h-4v3h-4v-3l-8-3v-1h15z"/><path class="by" d="m504 194h22l14 3 1 2-7-1-4-1-18-1h-10v6l-4-2v-3l-6 1-1 2-9-1 1-2z"/><path class="cM" d="m172 473l20 2 2 1v2l4 1-3 1h-11l-13-2-1-2 3-1z"/><path class="cN" d="m331 358l12 1 10 4 4 2v2l4 2 4 5 3 10v5l-4-3-1-9-4-6-9-6-10-4h-12v-2z"/><path class="g" d="m56 342l9 2 1 3-4-1v-2l-4 1-2-1 1 5v10l4 27h11v2h-10l-3-2-5-32v-11z"/><path class="p" d="m584 296l4 1 1 4-21 3h-3v-4l11-3z"/><path class="cO" d="m705 152l3 3 3 9 1 12-5 5-2-4 1-2h2l-4-17-2-4 3 1z"/><path class="cP" d="m347 100l5 1 8 6 7 8 3 4-2 1v-2l-5-2-16-12-3-3z"/><path class="bd" d="m78 273h6v1l-9 3-5 4-3 7v19l1 7 5 2 7 1v1h-9l-5-2-1-2-1-23 2-8 4-6z"/><path class="cQ" d="m676 149h10l8 4 6 8-1 2-7-8-7-3h-7l-9 5-6 7-3 10h-1l1-8 4-7 5-6z"/><path class="al" d="m558 636h2l1 7h9l-1 5-2 2h-6l-5-5v-7z"/><path class="aj" d="m435 596h23l-1 2-42 2h-15v-1z"/><path class="cR" d="m429 447l1 4v5h12v4l8 1v1l-27 1v-1l5-1v-13z"/><path class="cS" d="m342 338h7l-1 6-17 4h-2l2-5 4-1v-3z"/><path class="cT" d="m499 189h32l1 2-19-1v2l15 1 5 1v1h-33l1-2 5-1h-7l-5 1 1-2z"/><path class="cU" d="m647 161l1 2-3 8v18l3 10 5 9-4-2-5-9-3-12-1-9 4-11z"/><path class="h" d="m434 419h1l-1 18-2 13-1 5 3-1 4-28h1l-1 14-2 16-1 1h-5l-1-1 1-11z"/><path class="cV" d="m227 299l4 1 3 3h9l10-2 4 1-3 1v2l-9 1v2l-10 1v2h-2l-1-7z"/><path class="cW" d="m667 150l2 1-3 4 2 1-6 7-5 17-2-1v-7l3-11 4-5 3-5z"/><path class="b2" d="m432 163h2l-1 7-8 16-3-1 1-6 7-14z"/><path class="by" d="m692 159l4 4 2 6v13l-2 6h-2v-15l-3-6-5-4 1-2 5 3z"/><path class="cX" d="m168 392h1v8h-9l-2-1-16-2 2-4h20v1h-8v2l8 1 4 2z"/><path class="cD" d="m425 378h8v2l-24 5-19 1 3-2z"/><path class="cY" d="m443 232h1v6l-1 2 7-6 2 1-11 11h-15v-1h8l2-5 5-7zm9 1l2 1z"/><path class="cZ" d="m143 380h9v2l4-1 3 2v2l-4 2h-12l-1-4-3 1v-2z"/><path class="d0" d="m574 203l7 6 10 12-1 2-3-2 3 4-1 3-9-13-8-8 2-1z"/><path class="d1" d="m144 344h8l27 4v1l-20-1 5 1v1l-15-1-8-1v-3z"/><path class="b2" d="m180 409h9l42 6v2l-19-2-31-4z"/><path class="d2" d="m176 360l13 1 21 3 5 2v1l-14-1-6-1h-12l-7-2z"/><path class="d3" d="m479 121l1 2-3 7-9 1-10 5-6 5 2-4-2-2 4-1 3-5 11-1 5-5z"/><path class="d4" d="m291 402h5l4 3 8 1v1l-30 4h-4l1-4 1 2 3-3 10 1 2-1z"/><path class="d5" d="m413 148h2l2 10-2 1-2 7-2 3h-2l-3-7 1-5 6-3z"/><path class="d6" d="m262 386h1v20l-1 1-17 2h-13l-1-1v-20h1l2 18h18l10-1z"/><path class="d7" d="m357 335h8v2l2 1-2 3-12 2h-5l-1-4 5-2h5z"/><path class="ah" d="m508 456h6l-3 2-20 2h16v2l-22 2h-8l3-2h8v-2l-3-1 2-1z"/><path class="al" d="m128 639l2 2 1 3 5 1h5l-1 5-4 2-6-1-4-5v-5z"/><path class="d8" d="m194 279h2l3 4 3-1v3l5-1-5 6-4 1-1 3h-7l1-3h4l-2-5h2z"/><path class="d9" d="m210 268l2 3 4 8 2 2 6-1 5-2 1 3 4 2-9 2h-8l-5-5-2-5z"/><path class="h" d="m557 240h5l3 3 1 4-3 4-7-1-1-2v-6z"/><path class="ae" d="m442 331h1l-1 10-4 26-2 6h-1v-9l5-29z"/><path class="da" d="m74 388l11 1 8 1-2 1-2 4-16-2-2-1 1-3z"/><path class="aD" d="m121 341h11l12 2v2h-3v2l-14-1-5-1z"/><path class="db" d="m359 376h2l3 13-13 3-3-1 2-1v-5h7l3-2z"/><path class="dc" d="m317 324h15l2 2-22 4h-8l3-4z"/><path class="U" d="m475 243h3l-1 3-4 2 1 2-9-1-19-2v-1l13-1 1-1h6l4 1z"/><path class="dd" d="m413 601h13l11 1-2 2-22 1h-12l1-2z"/><path class="dd" d="m315 474h5v5l-15 1-10-1 4-1v-2z"/><path class="de" d="m434 346h4l-1 12-3 17-1 2-3-1h2l-1-9 3-12z"/><path class="df" d="m586 219l7 5 6 10-1 10h-2l-3-10-3-5-3-7z"/><path class="dg" d="m382 122h16l5 2v2l-23 1 1-4z"/><path class="aN" d="m322 45h1v19l-5 2-1-3h-2l-5-10 1-3 4 6 5 1 1-1z"/><path class="al" d="m579 364h3l-1 7-7 26-1-4 5-20-1-4-14-1v-1z"/><path class="al" d="m255 654h2l1 5h10l-1 5-4 2-5-1-4-3v-7z"/><path class="dh" d="m403 334h28l5 3v1l-35-1v-2z"/><path class="h" d="m315 423h1v11l-2 20v12l3-8h1v10h-7l1-18z"/><path class="di" d="m206 621h9l34 4-1 2h-9l-26-3v-2h-7z"/><path class="by" d="m476 196l2 1-4 4 5-2 3 1-18 8-6 2 6-7 7-5z"/><path class="W" d="m376 565h1v6l-4 6-3 3-3 1h-8v-3l8-2 5-4 1-4h2z"/><path class="dj" d="m97 242h2l2 18v2l13 2 6 3 1 2-6-2-2-1-11-1-3-1-1-2z"/><path class="dk" d="m447 375l1 3 2-1 9-1h9l-1 3-15 3h-6z"/><path class="b2" d="m395 468l9 1v1l-40 4-4-1v-2z"/><path class="dl" d="m414 325h6l-3 2-27 7h-5l3-3 10-3z"/><path class="dm" d="m555 203l5 2 11 9 7 7 9 13 2 5-5-5-11-15-10-9-8-6z"/><path class="dn" d="m112 331h16l14 2v1h-5v2l-13-1-8-1v-2z"/><path class="do" d="m210 305h10l3 2-3 2-2-1-1 3-11 1v-2l-3-1z"/><path class="dp" d="m238 421l3 1-4 3 1 9 7 16 6 16-1 2-5-12-8-17-2-5v-11z"/><path class="as" d="m188 422l3 2v9l-4 4-4-5 2-9z"/><path class="U" d="m511 266l6 2 11 8 3 3 20-2v2l-16 3h-5l-8-8-11-7z"/><path class="dq" d="m395 602h14v1l-7 1-1 1-10 1h-11l-5-1v-2z"/><path class="b" d="m314 371l3 2h3l-1 18h-1v-8h-2l-1 2h-2v-12z"/><path class="dr" d="m54 264h2l4 12v3l2 1-1 4-1 15h-1l-1-14-4-15z"/><path class="ds" d="m77 182l1 2-4 6-4 1-2 6-7 8-3 4 1-7 4-6 5-5z"/><path class="da" d="m275 394l3 1v2h-2l1 7 13-1 2 4-9 1-4-1-4 3z"/><path class="dt" d="m242 288h11l4 4-11 1-10 2 2-5z"/><path class="du" d="m224 261l3 1v7l4 6 1 2-5 1-5-7v-9z"/><path class="B" d="m304 53l2 4 2 10 1 13-1 2h-2l-6-11 1-2 3 3 1-1v-8z"/><path class="dv" d="m299 377l2 1-7 8-3 8-3 4-1 4 4 1h-10l1-2h2l2-7 4-5 2-5z"/><path class="dw" d="m470 314l7 1-1 2-17 5 1 2h-6l2-1v-2l2-1v-3z"/><path class="dx" d="m432 246h14l4 2-4 2v1h-7l-1 1h-5v-3l-5 1z"/><path class="dy" d="m316 354h1v7l-2 6-10 7-9 6 2-4 4-4 11-7z"/><path class="al" d="m90 341l14 1 23 3 2 2h-13l-18-3-8-1z"/><path class="dz" d="m353 325h8l-1 2-4 1-2 4v-2l-8 2h-5l3-2-4-2z"/><path class="U" d="m319 133l4 1 3 5-1 5-6 1-1-1v-9z"/><path class="h" d="m255 605h19v1l-33 2 11 1-2 2h-11l-2-1v-3l2-1z"/><path class="ah" d="m75 460l20 2 4 2-22-1 17 3 2 2-13-1-8-2-1-4z"/><path class="dA" d="m532 190l8 1 13 3 11 6 3 3 5 3v3l-8-6-8-5-18-5-6-2z"/><path class="dB" d="m446 98h2l-2 5-5 4 1 10-3-3-2-12-3 1 2-4 7 1z"/><path class="cu" d="m95 595l11 3v2l-8-1-4-1v6l4 2 6 1-2 2h-6l-5-4v-6z"/><path class="dC" d="m187 364h8l17 2 4-1 3 2-2 3-11-1-17-3z"/><path class="bD" d="m585 325l1 2-7 16-1 4h-2l-4-11 1-2 3 2 4-1z"/><path class="U" d="m336 167l4 2 3 6-1 4h-7v-10z"/><path class="h" d="m559 303h5l1 2-1 13-1 3v13h-2l-1 3v-13l2-14v-5l-2-1-1 3z"/><path class="dD" d="m320 354h1v16l-1 3-4 1-2-3v-4l4-2v-8z"/><path class="dE" d="m157 317h5l-2 6-3 6h5l-4 2-5-1-1-4 3-6h2z"/><path class="dF" d="m535 285h13v1l-27 5h-4l2-4z"/><path class="dG" d="m98 185l3 2h5v2l2 1h-4v2l-14 1 6-7z"/><path class="dH" d="m288 430l7 6 9 13 3 8h-3l-6-12-8-10z"/><path class="dI" d="m272 289l11 1 25 5v2l-16-2-19-4z"/><path class="dJ" d="m234 229l2 1-1 16-2 3-1-3v-10l-3 1v-5z"/><path class="dK" d="m667 135l10 1 1 2-12 3-4 2 1-3-8 2 3-3z"/><path class="b2" d="m231 481h30v1l-15 2h-14z"/><path class="ah" d="m400 466l4 1-1 2-21 1-8 1h-14v-1l16-2z"/><path class="dL" d="m91 349h13l4 2-15-1 3 13 1 5-1 5-2-2-3-18z"/><path class="dm" d="m230 236h2l1 3v12l-4 9-1-4 1-19z"/><path class="dM" d="m503 127v3l-4 6 19 1 6-3-2 4-2 1h-11l-13-1 1-5 5-5z"/><path class="dN" d="m422 65h10l6 2v2l-5-1h-11l-7 4-5 5-2 1 2-5 5-4 3-3z"/><path class="dO" d="m179 395l2 4h1v-2l4-1 1 1 11 1v1h-11v2l11 2-4 1-14-2-2-2z"/><path class="dP" d="m232 251l2 4 1 6-2 1-2-1-2 8h2l-1 4h-2v-13z"/><path class="dQ" d="m51 231l1 4h2l-2 11h2l1 11v1l1 5h-2l-1 3-2-14z"/><path class="dR" d="m559 356h10l2 2-3 3-10 1-1-5z"/><path class="dS" d="m430 389h9v4l-5 2-2-1-14-2v-1z"/><path class="dT" d="m166 341h15l15 3v1h-14l-9-1-7-2z"/><path class="dU" d="m117 277h2l2 5v3h2l3 12 1 7v3h-2l-3-13z"/><path class="dV" d="m662 154v3l-3 4h-2l-2 9v11l1 3 2 2h-4l-1-2v-16l3-9 3-4z"/><path class="dW" d="m468 143l2 1-4 3-4 8-4 5-4 2 2-6 6-8z"/><path class="dX" d="m348 126h4l3 6-1 4h-6l-1-8z"/><path class="cM" d="m225 479l5 1v2l3 1 12 1v1h-17l-9-2 2-3z"/><path class="dY" d="m72 272l2 1-5 6-7 6-1 19h-1v-23l5-3z"/><path class="as" d="m593 246l2 1-8 19-5 5-3-1 5-4 6-15z"/><path class="dZ" d="m252 418h13l7 2v1h-19l-9 1-3-2z"/><path class="e0" d="m142 389h16l4 2v1h-20l-2-2z"/><path class="e1" d="m367 205l4 2 3 4-1 5h-6z"/><path class="da" d="m451 192l4 5 4 1 4-2 3-3v5l-6 4-6-1-3-6z"/><path class="U" d="m346 409h7l-4 2-15 4-10-1 4-2z"/><path class="e2" d="m66 405l5 1 1 2h-3l-1 14-3-4v-12z"/><path class="e3" d="m354 367l5 3 4 5 1 2 1 12-2-1-2-12-4-2-3-5z"/><path class="e4" d="m138 356h9l15 2v3l-11-1-9-2z"/><path class="e5" d="m563 332h1l4 17-1 5-5 2-3-1 5-3-1-11z"/><path class="e6" d="m88 170l2 1-3 3-2-1zm-5 4l2 1-16 16-4 5-2-1 13-15z"/><path class="e7" d="m449 101l4 1v10l-2 1-2-1v-4h-2l-1-3z"/><path class="e8" d="m324 214l4 1 3 6v3h-7z"/><path class="e9" d="m230 473h21l1 2-3 1h-12l-7-1z"/><path class="ea" d="m386 405l2 3v10l-1 7-3-4 1-15z"/><path class="eb" d="m445 209h1l-1 7-6 5-3 1-1-5 6-4h4z"/><path class="ec" d="m314 421h1v12l-2 17-2-3v-7l1-3 1-15z"/><path class="bn" d="m551 343h1l-1 16-2 6-1 1-12 1 4-2 7-1 1-1v-11z"/><path class="ed" d="m340 341h3l-1 4-11 3h-2l2-5z"/><path class="ee" d="m373 339h6l-1 14-2 1-1-9-2-3-3-2z"/><path class="ef" d="m573 279h6v1l-26 5h-5l4-3 10-2z"/><path class="b2" d="m76 462l15 1 8 1-1 3-18-2-4-2z"/><path class="ah" d="m96 395l5 2 7 1 1 2h-10l-12-2-1-2z"/><path class="a" d="m543 358l1 2h2l1 2 2-1-2 4-10 1 2-1-3-4z"/><path class="eg" d="m409 218l5 1 2 5v4h-5l-2-6z"/><path class="eh" d="m508 96l10 1 4 3-6-1h-10l-10 4h-2v-2l7-4z"/><path class="b2" d="m86 397l23 3 3 2-20-1-9-2z"/><path class="bn" d="m516 301h7l-2 1v2l3 1-6 2h-8l1-3h8l-9-1v-1z"/><path class="aN" d="m56 263l2 1 2 5 4 4-2 6h-2l-4-11z"/><path class="bV" d="m223 615h8l16 3v2l-19-2-5-2z"/><path class="ei" d="m312 13l3 1 5 12 1 9-3-1-3-14-3-5z"/><path class="p" d="m231 486h18l2 3h-20z"/><path class="as" d="m93 428l1 2-7 11h-2v-6l3-4z"/><path class="ej" d="m500 385l4 1v7l-2 3-1 4-2-4z"/><path class="ek" d="m125 390l11 1-1 4 2 1-12-1z"/><path class="el" d="m544 371l3 1v10l-2 12-2-1-1-6 2-4v-4h2l-1-5-3-2z"/><path class="em" d="m306 348h8l2 2-10 3h-6l3-4z"/><path class="p" d="m539 306h11l2 3-1 3-2-3h-11l-8 1 1-3z"/><path class="bE" d="m562 293h11l3 2-7 1-1 2-7 1-2-3z"/><path class="en" d="m113 272l4 1 5 5 4 14-1 3-2-5v-5h-2l-2-8-4-2z"/><path class="eo" d="m452 234l4 1v6l-3-2-4 1-4 5-4 1 1-3 8-7z"/><path class="ep" d="m223 429l2 1-5 4 2-4zm-6 5l3 1-7 7-4 6-2 5-1-3 4-8z"/><path class="eq" d="m377 353h1l-1 18-1 5h-1v-21z"/><path class="er" d="m245 282h7l7 4-4 2-7-2-3-2z"/><path class="bg" d="m442 267l4 1v6h-6l-2-4 1-2z"/><path class="v" d="m293 390l3 4v5l-6-1-1 4h-2l1-5z"/><path class="es" d="m285 371l2 1 1 4v8l-4 3v-9z"/><path class="h" d="m454 314l4 1h-3v2l-15 3-3-1 1-2z"/><path class="et" d="m257 292l3 3-1 4-6 3h-10l4-2 10-4z"/><path class="a9" d="m366 279l2 1-16 11-5 4-2-1 5-5 9-6z"/><path class="by" d="m657 161l1 3-2 8v7l2-5h1v7l-1 2h-3l-1-2v-11z"/><path class="eu" d="m129 467l8 1v2l-4 3h-5v-2l-3-1 1-2z"/><path class="al" d="m267 357h3v17l-1 7h-1z"/><path class="ev" d="m127 308h1l1 16-4 1-3-2 4-2v-12z"/><path class="da" d="m308 297l7 2 7 1-1 3-18-3v-2z"/><path class="ew" d="m403 124l5 3v3l-7-1-2-1-11-1v-1h15z"/><path class="da" d="m300 185l4 4 1 5-6 1v-9z"/><path class="C" d="m333 91l1 2-1 3-19-1 1-2 17-1z"/><path class="U" d="m559 373h10l-1 11-2-4-1-3-6-2z"/><path class="ex" d="m195 363h9l8 2 3 2-14-1-6-1z"/><path class="ey" d="m331 358l12 1 10 4v2l-5-1-8-3h-12v-2z"/><path class="ez" d="m228 278l2 3 4 2-5 1h-10l3-3z"/><path class="eA" d="m460 244h6l2 2-5 2-17-1v-1l13-1z"/><path class="eB" d="m709 166l2 2 1 8-5 5-2-4 1-2h2z"/><path class="dm" d="m696 156l4 2 3 5 2-3 2 8-2 3-3-5z"/><path class="eC" d="m168 392h1v8h-9l-2-1v-2l-6-1 4-2v2l8 1 4 2z"/><path class="eD" d="m250 610h17v1h-15v2h-10l-2-2z"/><path class="ah" d="m369 604l11 1-3 2h-16l2-2z"/><path class="eE" d="m308 406h7l2 3-14 1-2-3z"/><path class="eF" d="m279 406l14 2v1l-19 2 1-4 1 2z"/><path class="eG" d="m69 354h1l1 6v18h-1l-2-13z"/><path class="ck" d="m442 331h1l-1 10-1 7-3 1 1-9z"/><path class="cD" d="m194 308h2l1 5 6-3h3v3l-9 3-3-4z"/><path class="eH" d="m537 288l3 1-16 4-8-1v-1z"/><path class="eI" d="m376 163h2v2h2l1 7-2 1-3-2-1-7z"/><path class="eJ" d="m525 133l1 2-5 5-16 1v-1l-5-1v-1h20z"/><path class="dp" d="m506 120l3 1-7 8v-3l-4 2-3 2 2-4 6-5z"/><path class="eK" d="m317 458h1v10h-7v-6l2-1 1 5z"/><path class="eL" d="m238 421l3 1-4 3 1 9 2 5-1 3-3-4-1-4v-11z"/><path class="eM" d="m218 383h1l1 13 1 2v8l-4 1 1-7z"/><path class="bD" d="m156 394h11l1 5-9-2-3-1z"/><path class="eN" d="m122 272l3 1 2 5 2 1v13l-2-4-4-14z"/><path class="eO" d="m479 121l1 2-3 7-7-1 2-4z"/><path class="eP" d="m325 406h5l-6 4-2 13h-1v-14z"/><path class="ah" d="m63 404h8l5 2v1h-5l-5-1-1 12h-1z"/><path class="dm" d="m680 158h8l4 2 1 5-8-4-5-1z"/><path class="ah" d="m122 466l7 1-1 5h-7l-2-2 1-2h2z"/><path class="ah" d="m409 602l9 1-4 2h-13l1-2z"/><path class="eQ" d="m438 433h2l1 10h-1l-1 7h-1l-1-10z"/><path class="eR" d="m556 421l1 2-7 14-1-4 5-10z"/><path class="eS" d="m342 404h7l-2 2-3 1-17 1 3-2z"/><path class="eA" d="m231 388h1l2 18 2 2-4 1-1-1z"/><path class="cD" d="m316 354h1v7l-2 6-4 3-2-1 4-4z"/><path class="eT" d="m328 347h10l-2 2-7 1v6h2v3l-3-1z"/><path class="eU" d="m492 317h6l-2 13h-1l-1-10-5-1z"/><path class="al" d="m170 304l17 1-4 2-12 1z"/><path class="eV" d="m72 270h2v2l-8 6-4 4v-5z"/><path class="da" d="m600 231h1v7l-2 9-2 1 1-15z"/><path class="eW" d="m337 169l3 3 2 5-5 1-1-1v-7z"/><path class="eX" d="m280 24l2 1-1 5-2 3-1-1-2 3-1-6z"/><path class="eY" d="m138 603l14 1 3 2h-14l-3-1z"/><path class="aj" d="m379 442h1v17l-3 1z"/><path class="eZ" d="m577 302h6l-4 3-4 1h-9v-2l2-1z"/><path class="f0" d="m553 236l3 2-4 4v9l-3-3v-7z"/><path class="B" d="m77 182l1 2-4 6-4 1v2h-2l2-4zm-14 14l2 1-2 1z"/><path class="dp" d="m432 90l3 3 2 4-1 3-2 3-2-1z"/><path class="h" d="m108 329l12 1-4 3-14-1v-1h6z"/><path class="v" d="m453 242l5 1 3-1-2 4h-10z"/><path class="f1" d="m555 375l5 1 6 6v8h-1l-2-7-3-3v-2l-5-2z"/><path class="f2" d="m78 273h6v1l-9 3-5 4h-2l2-4z"/><path class="f3" d="m439 220l2 1-6 8-2-2 1-5z"/><path class="da" d="m478 187h7l-2 2-8 3-5 2-1-2z"/><path class="eR" d="m407 164l2 2 6 12-2 4-6-15z"/><path class="f4" d="m418 66l3 1-7 6-5 5v-3l5-5z"/><path class="f5" d="m364 378l3 1 1 10-4-3z"/><path class="f6" d="m555 374l8 1 3 2 1 6-3-2v-2l-4-2-5-2z"/><path class="f7" d="m212 365l7 1-2 4-11-1v-1l6-2z"/><path class="f8" d="m510 360l3 1-2 4-6 1v-5z"/><path class="f9" d="m379 355h3l1 2v6l-5-1v-6z"/><path class="fa" d="m591 309h1l-1 8-2 8-3 1 1-6z"/><path class="fb" d="m194 279h2l3 5v2h-2v3h-3l-1-3h2z"/><path class="by" d="m94 269h5l-4 3-6 3h-6l1-2 7-2z"/><path class="fc" d="m230 236h2l1 3-2 8h-2v-10z"/><path class="fd" d="m155 605l10 1v2l4 1-11-1-7-1z"/><path class="fe" d="m498 398l2 1 1 9h-2l-1 2-1-5z"/><path class="ff" d="m434 346h4l-1 12-2-3z"/><path class="fg" d="m210 305h10l3 2-3 2-9-2z"/><path class="fh" d="m586 219l7 5 2 4-2 2-3-2-4-7z"/><path class="fi" d="m278 31l1 2-1 11-2-2-2-10z"/><path class="fj" d="m206 621h9l9 1-2 2h-9v-2h-7z"/><path class="eY" d="m91 603l4 2 9 2-2 2h-6l-5-4z"/><path class="fk" d="m321 429h1v18l-3 1z"/><path class="fl" d="m414 325h6l-3 2-7 2-7-1v-1z"/><path class="fm" d="m98 326h14v3l-13-1z"/><path class="fn" d="m662 154v3l-3 4h-2l-1 5h-1l1-7 3-4z"/><path class="fi" d="m526 137l5 1-1 5-8-2z"/><path class="fo" d="m305 63h1v8l-2 2-6-5 1-2 5 1z"/><path class="fp" d="m283 391l1 2-6 9h-2v-5z"/><path class="fq" d="m510 381l1 3-4 2-6-1v-2z"/><path class="cZ" d="m106 371l2 1-8 9-2-1-1-7 3 4z"/><path class="da" d="m320 354h1v10l-1 2-2-1v-8z"/><path class="bg" d="m499 191h13v1l-14 2-4-1z"/><path class="bD" d="m660 173h1v9l-3 4-3-3h3l1-9z"/><path class="fr" d="m416 175l2 2-1 5v8l-2-3-1-9z"/><path class="fs" d="m504 366l1 4h14v1l-16 1z"/><path class="ft" d="m176 360h5l1 2 6 1-1 2-9-1-2-1z"/><path class="fu" d="m544 354h3l1 8h-3l1-2h-2z"/><path class="ao" d="m205 280l5 1-1 4-1-3-6 4-2-1z"/><path class="aQ" d="m165 607h8l6 1v2h-8l-6-2z"/><path class="fv" d="m445 394h5l-3 4v2l-4 2 1-7z"/><path class="fw" d="m354 367l5 3 2 6-4-2-3-5z"/><path class="fx" d="m130 333h12v1h-5v2h-7z"/><path class="fy" d="m535 285h13v1l-16 2z"/><path class="fz" d="m74 206h1l1 13-3-1v-11z"/><path class="fA" d="m416 159l3 3 1 5-2 6h-1z"/><path class="da" d="m320 135l3 1 2 6h-5z"/></svg>